<?xml version="1.0" encoding="UTF-8"?>
<svg xmlns="http://www.w3.org/2000/svg" width="512" height="512" viewBox="0 0 512 512">
   <rect width="512" height="512" x="1" fill="none"/>
   <!-- Group tag -->
   <g id="g1">
      <!-- Outer box -->
      <path d="M 193.8,73 h 265.9 c 28.9,0 52.3,23.4 52.3,52.3 v 261.4 c 0,28.9 -23.4,52.3 -52.3,52.3 H 193.8 c -13.9,0 -27.2,-5.5 -37,-15.3 L 7.7,274.5 c -10.2,-10.2 -10.2,-26.8 0,-37 L 156.8,88.3 c 9.9,-9.8 23.1,-15.3 37,-15.3 z"
            stroke="blue"
            stroke-width="4"
            fill="#3a6fff" />
      <!-- X symbol -->
      <path d="m 366,256 l 37,-37 c 10,-10.4 9.7,-26.9 -0.7,-37 c -10.1,-9.8 -26.2,-9.8 -36.3,0 l -37,37 l -37,-37 c -10,-10.4 -26.6,-10.7 -37,-0.6 c -10.4,10 -10.7,26.6 -0.6,37 l 0.6,0.6 l 37,37 l -37,37 c -10.4,10 -10.7,26.6 -0.6,37 c 10,10.4 26.6,10.7 37,0.6 L 292,330 l 37,-37 l 37,37 c 10,10.4 26.6,10.7 37,0.6 c 10.4,-10 10.7,-26.6 0.6,-37 L 403,293 Z"
            stroke="blue"
            stroke-width="4"
            fill="#ffffff" />
   </g>
</svg>
