<?xml version="1.0" encoding="UTF-8" standalone="no"?>
<!-- Created with Inkscape (http://www.inkscape.org/) -->

<svg
   xmlns:dc="http://purl.org/dc/elements/1.1/"
   xmlns:cc="http://creativecommons.org/ns#"
   xmlns:rdf="http://www.w3.org/1999/02/22-rdf-syntax-ns#"
   xmlns:svg="http://www.w3.org/2000/svg"
   xmlns="http://www.w3.org/2000/svg"
   xmlns:xlink="http://www.w3.org/1999/xlink"
   xmlns:sodipodi="http://sodipodi.sourceforge.net/DTD/sodipodi-0.dtd"
   xmlns:inkscape="http://www.inkscape.org/namespaces/inkscape"
   width="65"
   height="65"
   id="svg2"
   version="1.1"
   inkscape:version="0.48.5 r10040"
   sodipodi:docname="flagBrazil.svg">
  <defs
     id="defs4">
    <linearGradient
       id="linearGradient3803">
      <stop
         style="stop-color:#ffffff;stop-opacity:0.52252251;"
         offset="0"
         id="stop3805" />
      <stop
         style="stop-color:#ffffff;stop-opacity:0;"
         offset="1"
         id="stop3807" />
    </linearGradient>
    <linearGradient
       inkscape:collect="always"
       xlink:href="#linearGradient3803"
       id="linearGradient3809"
       x1="155.63599"
       y1="258.62933"
       x2="155.63599"
       y2="285.64468"
       gradientUnits="userSpaceOnUse" />
    <clipPath
       id="band">
      <circle
         sodipodi:ry="735"
         sodipodi:rx="735"
         sodipodi:cy="0"
         sodipodi:cx="0"
         cy="0"
         cx="0"
         r="735"
         id="circle53" />
    </clipPath>
    <clipPath
       id="gcut">
      <path
         inkscape:connector-curvature="0"
         d="m -31.5,0 v -70 h 63 V 0 z M 0,-47 v 12 h 31.5 v -12 z"
         id="path11" />
    </clipPath>
  </defs>
  <sodipodi:namedview
     id="base"
     pagecolor="#ffffff"
     bordercolor="#666666"
     borderopacity="1.0"
     inkscape:pageopacity="0.0"
     inkscape:pageshadow="2"
     inkscape:zoom="8.2746866"
     inkscape:cx="28.559456"
     inkscape:cy="32.71035"
     inkscape:document-units="px"
     inkscape:current-layer="layer1"
     showgrid="false"
     fit-margin-top="0"
     fit-margin-left="0"
     fit-margin-right="0"
     fit-margin-bottom="0"
     inkscape:window-width="1680"
     inkscape:window-height="995"
     inkscape:window-x="-2"
     inkscape:window-y="-3"
     inkscape:window-maximized="1" />
  <metadata
     id="metadata7">
    <rdf:RDF>
      <cc:Work
         rdf:about="">
        <dc:format>image/svg+xml</dc:format>
        <dc:type
           rdf:resource="http://purl.org/dc/dcmitype/StillImage" />
        <dc:title />
      </cc:Work>
    </rdf:RDF>
  </metadata>
  <g
     inkscape:label="Layer 1"
     inkscape:groupmode="layer"
     id="layer1"
     transform="translate(-125.21875,-257.5625)">
    <path
       style="fill:#009b3a"
       d="M 4.5 0.5 C 2.284 0.5 0.5 2.284 0.5 4.5 L 0.5 60.5 C 0.5 62.716 2.284 64.5 4.5 64.5 L 60.5 64.5 C 62.716 64.5 64.5 62.716 64.5 60.5 L 64.5 4.5 C 64.5 2.284 62.716 0.5 60.5 0.5 L 4.5 0.5 z "
       transform="translate(125.21875,257.5625)"
       id="rect46" />
    <path
       style="fill:#fedf00"
       d="M 32.5 8.28125 L 0.5 28.71875 L 0.5 36.28125 L 32.5 56.75 L 64.5 36.28125 L 64.5 28.71875 L 32.5 8.28125 z "
       transform="translate(125.21875,257.5625)"
       id="path48" />
    <circle
       d="M 735,0 C 735,405.92929 405.92929,735 0,735 -405.92929,735 -735,405.92929 -735,0 c 0,-405.92929 329.07071,-735 735,-735 405.92929,0 735,329.07071 735,735 z"
       style="fill:#002776"
       sodipodi:ry="735"
       sodipodi:rx="735"
       sodipodi:cy="0"
       sodipodi:cx="0"
       cy="0"
       cx="0"
       r="735"
       id="circle50"
       transform="matrix(0.02176881,0,0,0.02176881,157.71429,290.07648)" />
    <path
       style="fill:#ffffff;fill-opacity:1"
       d="M 24.5 25.6875 A 38.857326 38.857326 0 0 0 17.84375 26.09375 C 17.500651 26.876159 17.215524 27.689381 17 28.53125 A 36.571601 36.571601 0 0 1 47.75 37.34375 C 48.011054 36.517291 48.188065 35.659654 48.3125 34.78125 A 38.857326 38.857326 0 0 0 24.5 25.6875 z "
       transform="translate(125.21875,257.5625)"
       id="circle3053" />
    <rect
       style="fill:url(#linearGradient3809);fill-opacity:1;stroke:#000000;stroke-linejoin:miter;stroke-opacity:1"
       id="rect2985"
       width="64"
       height="64"
       x="125.71429"
       y="258.07648"
       rx="4"
       ry="4" />
  </g>
</svg>
