<?xml version="1.0" encoding="UTF-8" standalone="no"?>
<!-- Created with Inkscape (http://www.inkscape.org/) -->

<svg
   xmlns:dc="http://purl.org/dc/elements/1.1/"
   xmlns:cc="http://creativecommons.org/ns#"
   xmlns:rdf="http://www.w3.org/1999/02/22-rdf-syntax-ns#"
   xmlns:svg="http://www.w3.org/2000/svg"
   xmlns="http://www.w3.org/2000/svg"
   xmlns:xlink="http://www.w3.org/1999/xlink"
   xmlns:sodipodi="http://sodipodi.sourceforge.net/DTD/sodipodi-0.dtd"
   xmlns:inkscape="http://www.inkscape.org/namespaces/inkscape"
   width="65"
   height="65"
   id="svg2"
   version="1.1"
   inkscape:version="0.47 r22583"
   sodipodi:docname="flagNetherlands.svg">
  <defs
     id="defs4">
    <inkscape:perspective
       sodipodi:type="inkscape:persp3d"
       inkscape:vp_x="0 : 32.5 : 1"
       inkscape:vp_y="0 : 1000 : 0"
       inkscape:vp_z="65 : 32.5 : 1"
       inkscape:persp3d-origin="32.5 : 21.666667 : 1"
       id="perspective2952" />
    <linearGradient
       id="linearGradient3803">
      <stop
         style="stop-color:#ffffff;stop-opacity:0.52252251;"
         offset="0"
         id="stop3805" />
      <stop
         style="stop-color:#ffffff;stop-opacity:0;"
         offset="1"
         id="stop3807" />
    </linearGradient>
    <linearGradient
       inkscape:collect="always"
       xlink:href="#linearGradient3803"
       id="linearGradient3809"
       x1="155.63599"
       y1="258.62933"
       x2="155.63599"
       y2="285.64468"
       gradientUnits="userSpaceOnUse" />
  </defs>
  <sodipodi:namedview
     id="base"
     pagecolor="#ffffff"
     bordercolor="#666666"
     borderopacity="1.0"
     inkscape:pageopacity="0.0"
     inkscape:pageshadow="2"
     inkscape:zoom="11.702174"
     inkscape:cx="24.979597"
     inkscape:cy="30.310043"
     inkscape:document-units="px"
     inkscape:current-layer="layer1"
     showgrid="false"
     fit-margin-top="0"
     fit-margin-left="0"
     fit-margin-right="0"
     fit-margin-bottom="0"
     inkscape:window-width="1680"
     inkscape:window-height="1006"
     inkscape:window-x="-4"
     inkscape:window-y="-3"
     inkscape:window-maximized="1" />
  <metadata
     id="metadata7">
    <rdf:RDF>
      <cc:Work
         rdf:about="">
        <dc:format>image/svg+xml</dc:format>
        <dc:type
           rdf:resource="http://purl.org/dc/dcmitype/StillImage" />
        <dc:title />
      </cc:Work>
    </rdf:RDF>
  </metadata>
  <g
     inkscape:label="Layer 1"
     inkscape:groupmode="layer"
     id="layer1"
     transform="translate(-125.21875,-257.5625)">
    <path
       style="fill:#21468b"
       d="M 4.5 0.5 C 2.284 0.5 0.5 2.284 0.5 4.5 L 0.5 60.5 C 0.5 62.716 2.284 64.5 4.5 64.5 L 60.5 64.5 C 62.716 64.5 64.5 62.716 64.5 60.5 L 64.5 4.5 C 64.5 2.284 62.716 0.5 60.5 0.5 L 4.5 0.5 z "
       transform="translate(125.21875,257.5625)"
       id="rect4" />
    <path
       style="fill:#ffffff"
       d="M 4.5 0.5 C 2.284 0.5 0.5 2.284 0.5 4.5 L 0.5 43.1875 L 64.5 43.1875 L 64.5 4.5 C 64.5 2.284 62.716 0.5 60.5 0.5 L 4.5 0.5 z "
       transform="translate(125.21875,257.5625)"
       id="rect6" />
    <path
       style="fill:#ae1c28"
       d="M 4.5 0.5 C 2.284 0.5 0.5 2.284 0.5 4.5 L 0.5 21.84375 L 64.5 21.84375 L 64.5 4.5 C 64.5 2.284 62.716 0.5 60.5 0.5 L 4.5 0.5 z "
       transform="translate(125.21875,257.5625)"
       id="rect8" />
    <rect
       style="fill:url(#linearGradient3809);fill-opacity:1;stroke:#000000;stroke-linejoin:miter;stroke-opacity:1"
       id="rect2985"
       width="64"
       height="64"
       x="125.71429"
       y="258.07648"
       rx="4"
       ry="4" />
  </g>
</svg>
