<?xml version="1.0" encoding="UTF-8" standalone="no"?>
<!-- Created with Inkscape (http://www.inkscape.org/) -->

<svg
   xmlns:dc="http://purl.org/dc/elements/1.1/"
   xmlns:cc="http://creativecommons.org/ns#"
   xmlns:rdf="http://www.w3.org/1999/02/22-rdf-syntax-ns#"
   xmlns:svg="http://www.w3.org/2000/svg"
   xmlns="http://www.w3.org/2000/svg"
   xmlns:xlink="http://www.w3.org/1999/xlink"
   xmlns:sodipodi="http://sodipodi.sourceforge.net/DTD/sodipodi-0.dtd"
   xmlns:inkscape="http://www.inkscape.org/namespaces/inkscape"
   id="svg11323"
   version="1.1"
   inkscape:version="0.47 r22583"
   width="100.61495"
   height="135.33719"
   sodipodi:docname="glass.svg">
  <metadata
     id="metadata11329">
    <rdf:RDF>
      <cc:Work
         rdf:about="">
        <dc:format>image/svg+xml</dc:format>
        <dc:type
           rdf:resource="http://purl.org/dc/dcmitype/StillImage" />
        <dc:title></dc:title>
      </cc:Work>
    </rdf:RDF>
  </metadata>
  <defs
     id="defs11327">
    <linearGradient
       inkscape:collect="always"
       id="linearGradient15868">
      <stop
         style="stop-color:#ffffff;stop-opacity:0"
         offset="0"
         id="stop15870" />
      <stop
         id="stop15876"
         offset="0.55178571"
         style="stop-color:#ffffff;stop-opacity:0.50207469" />
      <stop
         style="stop-color:#ffffff;stop-opacity:0;"
         offset="1"
         id="stop15872" />
    </linearGradient>
    <linearGradient
       inkscape:collect="always"
       id="linearGradient15858">
      <stop
         style="stop-color:#cfcfcf;stop-opacity:1;"
         offset="0"
         id="stop15860" />
      <stop
         style="stop-color:#cfcfcf;stop-opacity:0;"
         offset="1"
         id="stop15862" />
    </linearGradient>
    <linearGradient
       inkscape:collect="always"
       id="linearGradient15848">
      <stop
         style="stop-color:#ffffff;stop-opacity:0.45228216"
         offset="0"
         id="stop15850" />
      <stop
         style="stop-color:#cfcfcf;stop-opacity:0"
         offset="1"
         id="stop15852" />
    </linearGradient>
    <linearGradient
       inkscape:collect="always"
       id="linearGradient15746">
      <stop
         style="stop-color:#ffffff;stop-opacity:1;"
         offset="0"
         id="stop15748" />
      <stop
         style="stop-color:#ffffff;stop-opacity:0;"
         offset="1"
         id="stop15750" />
    </linearGradient>
    <inkscape:perspective
       sodipodi:type="inkscape:persp3d"
       inkscape:vp_x="0 : 0.5 : 1"
       inkscape:vp_y="0 : 1000 : 0"
       inkscape:vp_z="1 : 0.5 : 1"
       inkscape:persp3d-origin="0.5 : 0.33333333 : 1"
       id="perspective11331" />
    <filter
       inkscape:collect="always"
       id="filter15584"
       x="-0.035831839"
       width="1.0716637"
       y="-0.15787107"
       height="1.3157421"
       color-interpolation-filters="sRGB">
      <feGaussianBlur
         inkscape:collect="always"
         stdDeviation="1.3258881"
         id="feGaussianBlur15586" />
    </filter>
    <mask
       maskUnits="userSpaceOnUse"
       id="mask15590">
      <path
         style="fill:#ffffff;fill-opacity:1;stroke:#000000;stroke-width:0.91027975px;stroke-linecap:butt;stroke-linejoin:miter;stroke-opacity:1"
         d="M 4.0452369,2.1807622 6.2253677,17.137194 c 0,0 6.0171613,0.270297 8.5461133,-0.450495 2.528952,-0.720792 14.214453,-1.711881 15.173711,-0.991089 0.959257,0.720792 5.145109,0.90099 7.586855,0.720792 2.441747,-0.180198 3.488209,-0.270297 6.627598,-0.270297 3.139389,0 2.092926,0.180198 5.493929,0.0901 3.401005,-0.0901 6.453188,-0.540594 8.197293,-0.450495 1.744105,0.0901 3.052183,-0.630693 5.581135,-0.540594 2.528952,0.0901 5.927685,1.449827 6.976419,1.261386 2.00572,-0.360396 4.970698,-0.720792 6.104366,-0.630693 1.133668,0.0901 4.883493,-0.180198 4.883493,-0.180198 0,0 3.749826,-15.67722365 2.528952,-15.94752063 -1.220873,-0.27029698 -1.220873,-1.62178177 -3.401004,0 C 78.344097,1.3698713 76.163967,2.5411581 73.198989,2.0005642 71.922316,1.7677931 71.018858,1.8203663 68.053879,1.7302673 65.088901,1.6401683 64.478465,1.0094754 62.036719,0.46888144 c -2.441747,-0.54059386 -3.837031,-0.54059386 -5.493931,-0.54059386 -1.656899,0 -3.575414,0.81089084 -7.32524,0.09009899 C 45.467724,-0.70240537 42.41554,-0.25191041 40.148204,0.10848556 37.880868,0.46888144 36.7472,1.6401683 33.782222,1.1896734 30.817244,0.73917842 29.596371,0.82927741 26.805803,0.82927741 c -2.790568,0 -3.837031,0.54059389 -5.319519,0.72079189 C 16.451092,2.162102 14.248249,1.3698713 12.59135,0.82927741 10.93445,0.28868346 8.8339758,0.06331375 7.7078568,-0.16181141 6.4707433,-0.40912569 3.6232875,0.7973541 4.0452369,2.1807622 z"
         id="path15592"
         sodipodi:nodetypes="ccsssssszsscsssssssssssssc" />
    </mask>
    <linearGradient
       inkscape:collect="always"
       xlink:href="#linearGradient15746"
       id="linearGradient15752"
       x1="51.115971"
       y1="12.200129"
       x2="51.190525"
       y2="16.451937"
       gradientUnits="userSpaceOnUse" />
    <filter
       inkscape:collect="always"
       id="filter15973"
       x="-0.03980941"
       width="1.0796188"
       y="-0.14317852"
       height="1.286357"
       color-interpolation-filters="sRGB">
      <feGaussianBlur
         inkscape:collect="always"
         stdDeviation="2.0550322"
         id="feGaussianBlur15975" />
    </filter>
    <linearGradient
       inkscape:collect="always"
       xlink:href="#linearGradient15746"
       id="linearGradient16062"
       gradientUnits="userSpaceOnUse"
       x1="51.115971"
       y1="12.200129"
       x2="51.190525"
       y2="16.451937" />
    <linearGradient
       inkscape:collect="always"
       xlink:href="#linearGradient15848"
       id="linearGradient16064"
       gradientUnits="userSpaceOnUse"
       gradientTransform="matrix(0.93086838,0,0,0.93086838,3.224968,8.2553013)"
       x1="10.321961"
       y1="69.042007"
       x2="52.778332"
       y2="69.042007" />
    <linearGradient
       inkscape:collect="always"
       xlink:href="#linearGradient15858"
       id="linearGradient16066"
       gradientUnits="userSpaceOnUse"
       gradientTransform="matrix(0.93086838,0,0,0.93086838,2.681097,8.4365917)"
       x1="45.572433"
       y1="117.14623"
       x2="81.128151"
       y2="117.14623" />
    <linearGradient
       inkscape:collect="always"
       xlink:href="#linearGradient15868"
       id="linearGradient16068"
       gradientUnits="userSpaceOnUse"
       gradientTransform="matrix(0.93086838,0,0,0.93086838,2.6494267,8.4247794)"
       x1="18.209497"
       y1="120.94394"
       x2="72.740616"
       y2="120.94394" />
    <linearGradient
       inkscape:collect="always"
       xlink:href="#linearGradient15868"
       id="linearGradient16071"
       gradientUnits="userSpaceOnUse"
       gradientTransform="matrix(0.93086838,0,0,0.93086838,8.998469,12.309841)"
       x1="18.209497"
       y1="120.94394"
       x2="72.740616"
       y2="120.94394" />
    <linearGradient
       inkscape:collect="always"
       xlink:href="#linearGradient15858"
       id="linearGradient16074"
       gradientUnits="userSpaceOnUse"
       gradientTransform="matrix(0.93086838,0,0,0.93086838,9.0301393,12.321654)"
       x1="45.572433"
       y1="117.14623"
       x2="81.128151"
       y2="117.14623" />
    <linearGradient
       inkscape:collect="always"
       xlink:href="#linearGradient15848"
       id="linearGradient16077"
       gradientUnits="userSpaceOnUse"
       gradientTransform="matrix(0.93086838,0,0,0.93086838,9.5740103,12.140363)"
       x1="10.321961"
       y1="69.042007"
       x2="52.778332"
       y2="69.042007" />
    <linearGradient
       inkscape:collect="always"
       xlink:href="#linearGradient15746"
       id="linearGradient16276"
       gradientUnits="userSpaceOnUse"
       x1="51.115971"
       y1="12.200129"
       x2="51.190525"
       y2="16.451937" />
    <linearGradient
       inkscape:collect="always"
       xlink:href="#linearGradient15848"
       id="linearGradient16278"
       gradientUnits="userSpaceOnUse"
       gradientTransform="matrix(0.93086838,0,0,0.93086838,9.5740103,12.140363)"
       x1="10.321961"
       y1="69.042007"
       x2="52.778332"
       y2="69.042007" />
    <linearGradient
       inkscape:collect="always"
       xlink:href="#linearGradient15858"
       id="linearGradient16280"
       gradientUnits="userSpaceOnUse"
       gradientTransform="matrix(0.93086838,0,0,0.93086838,9.0301393,12.321654)"
       x1="45.572433"
       y1="117.14623"
       x2="81.128151"
       y2="117.14623" />
    <linearGradient
       inkscape:collect="always"
       xlink:href="#linearGradient15868"
       id="linearGradient16282"
       gradientUnits="userSpaceOnUse"
       gradientTransform="matrix(0.93086838,0,0,0.93086838,8.998469,12.309841)"
       x1="18.209497"
       y1="120.94394"
       x2="72.740616"
       y2="120.94394" />
  </defs>
  <sodipodi:namedview
     pagecolor="#ffffff"
     bordercolor="#666666"
     borderopacity="1"
     objecttolerance="10"
     gridtolerance="10"
     guidetolerance="10"
     inkscape:pageopacity="0"
     inkscape:pageshadow="2"
     inkscape:window-width="1680"
     inkscape:window-height="1002"
     id="namedview11325"
     showgrid="false"
     inkscape:zoom="3.6307692"
     inkscape:cx="67.699434"
     inkscape:cy="83.794211"
     inkscape:window-x="0"
     inkscape:window-y="0"
     inkscape:window-maximized="0"
     inkscape:current-layer="svg11323"
     showguides="true"
     inkscape:guide-bbox="true" />
  <g
     id="g16196">
    <path
       id="rect16151"
       d="M 2.53125,4.90625 C 2.519391,4.90625 2.5,4.925641 2.5,4.9375 l 0,127.96875 c 0,0.0119 0.019391,0.0312 0.03125,0.0312 l 95.8125,0 c 0.01186,0 0.03125,-0.0194 0.03125,-0.0312 l 0,-127.96875 c 0,-0.011859 -0.01939,-0.03125 -0.03125,-0.03125 l -95.8125,0 z m 6.5,7.5 83.40625,0 -16.09375,115.6875 c -4.933844,1.73798 -45.834544,1.59157 -50.28125,-0.0312 L 9.03125,12.40625 z"
       style="fill:#ffffff;fill-opacity:1;stroke:none" />
    <path
       id="path15959"
       d="m 77.625,118.0625 -1.40625,10 c -4.0625,1.85911 -46.934675,1.23941 -50.125,0 l -1.4375,-9.71875 c -3.526745,0.53978 -6.583788,1.1827 -8.9375,1.9375 -10.617169,3.40476 -3.190285,7.57989 16.59375,9.34375 19.784035,1.76386 44.414081,0.43601 55.03125,-2.96875 9.283139,-2.97696 4.786649,-6.56277 -9.71875,-8.59375 z"
       style="opacity:0.44398343;fill:#000000;fill-opacity:1;stroke:none;filter:url(#filter15973)" />
    <path
       sodipodi:nodetypes="cccccc"
       style="fill:none;stroke:#cfcfcf;stroke-width:0.93086839px;stroke-linecap:butt;stroke-linejoin:round;stroke-opacity:1"
       d="M 9.0301393,12.413894 26.07143,128.07712 c 4.446706,1.62282 45.328899,1.73998 50.262743,0.002 l 16.089518,-115.664796 -83.3935517,0 0,-4.3e-4 z"
       id="path11849" />
    <path
       sodipodi:nodetypes="cc"
       id="path15886"
       d="M 8.9394941,12.232604 C 9.2746723,9.1028563 92.661343,10.609719 92.2424,12.141959"
       style="fill:none;stroke:#cfcfcf;stroke-width:0.93086839px;stroke-linecap:butt;stroke-linejoin:miter;stroke-opacity:1" />
    <path
       mask="url(#mask15590)"
       transform="matrix(1.0571947,0,0,1.4607423,4.0708926,8.476196)"
       id="path14198"
       d="m 26.300226,-2.6205319 c -0.597483,0 -1.758047,0.1934198 -3.03125,0.40625 0.0708,0.1138639 0.125,0.2356408 0.125,0.375 0,0.4033487 -0.346651,0.71875 -0.75,0.71875 -0.403349,0 -0.71875,-0.3154013 -0.71875,-0.71875 0,-0.055757 0.0198,-0.1034257 0.03125,-0.15625 -2.338043,0.4277482 -4.737907,0.9206521 -5.125,1.03124998 -0.681639,0.194754 -0.755309,1.48102394 -3.96875,0.31250004 C 9.6492851,-1.8203058 2.7377261,-1.8392819 2.7377261,-1.8392819 l -3.40625005,1.18750002 c 0,0 1.25446813,17.04436488 2.81250005,17.53124988 1.5580319,0.486885 7.195595,0.577008 8.6562499,0.1875 1.460655,-0.389508 20.657091,-0.0073 22.3125,0.1875 0.927025,0.109062 8.658407,0.28945 15.65625,0.28125 -0.326364,-0.09374 -0.5625,-0.394225 -0.5625,-0.75 0,-0.430239 0.351011,-0.78125 0.78125,-0.78125 0.430239,0 0.78125,0.351011 0.78125,0.78125 0,0.322679 -0.188521,0.599861 -0.46875,0.71875 5.287952,-0.01321 10.045677,-0.105771 10.875,-0.4375 1.94754,-0.779016 1.563341,-1.170758 3.21875,-0.78125 1.655408,0.389508 5.536559,0.882254 8.75,0.6875 3.213441,-0.194754 3.697829,-0.5 5.9375,-0.5 2.23967,0 4.016742,0.577008 4.40625,0.1875 0.389508,-0.389508 3.09375,-0.375 3.09375,-0.375 0,0 3.613278,-16.66573788 2.25,-17.24999992 -1.363278,-0.58426198 -5.051067,-1.72963098 -7.875,-1.43749998 -2.823932,0.292131 -5.666868,2.81026592 -12.09375,2.03125002 -6.426881,-0.77901592 -8.66742,-1.73911902 -12.5625,-2.03125002 -3.89508,-0.292131 -8.069202,-0.00725 -10.40625,0.1875 -0.786585,0.065549 -1.795043,0.3591381 -2.875,0.6875 0.225788,0.017566 0.40625,0.2071259 0.40625,0.4375 0,0.24200928 -0.195491,0.43750002 -0.4375,0.43750002 -0.242009,0 -0.4375,-0.19549074 -0.4375,-0.43750002 0,-0.1583737 0.09306,-0.29822 0.21875,-0.375 -2.076793,0.62927398 -4.481848,1.34011182 -6.71875,0.71875002 -3.505572,-0.97377002 -6.899837,-1.87500002 -8.75,-1.87500002 z m -22.1874999,0.90625 c 0.7260277,0 1.3125,0.5864724 1.3125,1.31250002 0,0.7260277 -0.5864723,1.3125 -1.3125,1.3125 -0.7061062,0 -1.2814174,-0.551561 -1.3125,-1.25 -0.3176367,-0.057997 -0.5625,-0.321866 -0.5625,-0.65625004 0,-0.37645878 0.3110412,-0.65624998 0.6875,-0.65624998 0.1882294,0 0.3453976,0.064148 0.46875,0.1875 0.2098098,-0.1417447 0.4464896,-0.25 0.71875,-0.25 z m 3.25,0.40625 c 0.2420092,0 0.4375,0.1954908 0.4375,0.43749998 0,0.24200934 -0.1954908,0.43750004 -0.4375,0.43750004 -0.2420092,0 -0.4375,-0.1954907 -0.4375,-0.43750004 0,-0.24200918 0.1954908,-0.43749998 0.4375,-0.43749998 z m 77.9687499,0.03125 c 0.376459,0 0.6875,0.31104118 0.6875,0.68750002 0,0.3764588 -0.311041,0.6875 -0.6875,0.6875 -0.376459,0 -0.6875,-0.3110412 -0.6875,-0.6875 0,-0.37645884 0.311041,-0.68750002 0.6875,-0.68750002 z m -20.34375,1.37500002 c 0.430239,0 0.78125,0.3510114 0.78125,0.78125 0,0.43023858 -0.351011,0.78124998 -0.78125,0.78124998 -0.430239,0 -0.78125,-0.3510114 -0.78125,-0.78124998 0,-0.4302386 0.351011,-0.78125 0.78125,-0.78125 z m 10.28125,0.09375 c 0.457129,0 0.8125,0.3553715 0.8125,0.81249998 0,0.4571285 -0.355371,0.8125 -0.8125,0.8125 -0.457129,0 -0.84375,-0.3553715 -0.84375,-0.8125 0,-0.45712848 0.386621,-0.81249998 0.84375,-0.81249998 z m -54.34375,0.40625 c 0.349569,0 0.65625,0.2754311 0.65625,0.62499998 0,0.3495689 -0.306681,0.625 -0.65625,0.625 -0.349569,0 -0.625,-0.2754311 -0.625,-0.625 0,-0.34956888 0.275431,-0.62499998 0.625,-0.62499998 z m 57.125,0.78124998 c 0.457129,0 0.84375,0.3866215 0.84375,0.84375 0,0.4571285 -0.386621,0.8125 -0.84375,0.8125 -0.457129,0 -0.8125,-0.3553715 -0.8125,-0.8125 0,-0.4571285 0.355371,-0.84375 0.8125,-0.84375 z m -34.8125,1.09375 c 0.591578,0 1.0625,0.4709219 1.0625,1.0625 0,0.5915781 -0.470922,1.0625 -1.0625,1.0625 -0.591578,0 -1.09375,-0.4709219 -1.09375,-1.0625 0,-0.5915781 0.502172,-1.0625 1.09375,-1.0625 z m 30.71875,1.53125 c 0.564688,0 1.03125,0.4665618 1.03125,1.03125 0,0.5646882 -0.466562,1.0312502 -1.03125,1.0312502 -0.564688,0 -1,-0.466562 -1,-1.0312502 0,-0.5646882 0.435312,-1.03125 1,-1.03125 z m -58.09375,0.5625 c 0.457129,0 0.84375,0.3866215 0.84375,0.84375 0,0.4571285 -0.386621,0.8125002 -0.84375,0.8125002 -0.457129,0 -0.8125,-0.3553717 -0.8125,-0.8125002 0,-0.4571285 0.355371,-0.84375 0.8125,-0.84375 z m 23.875,0.25 c 0.457129,0 0.8125,0.3866215 0.8125,0.84375 0,0.4571282 -0.355371,0.8125002 -0.8125,0.8125002 -0.457129,0 -0.84375,-0.355372 -0.84375,-0.8125002 0,-0.4571285 0.386621,-0.84375 0.84375,-0.84375 z m 7.5,0.375 c 0.349569,0 0.65625,0.2754311 0.65625,0.625 0,0.3495692 -0.306681,0.6562502 -0.65625,0.6562502 -0.349569,0 -0.625,-0.306681 -0.625,-0.6562502 0,-0.3495689 0.275431,-0.625 0.625,-0.625 z m -13.625,0.21875 c 0.510908,0 0.90625,0.3953416 0.90625,0.9062502 0,0.510908 -0.395342,0.9375 -0.90625,0.9375 -0.510908,0 -0.9375,-0.426592 -0.9375,-0.9375 0,-0.5109086 0.426592,-0.9062502 0.9375,-0.9062502 z m 19.46875,0.6250002 c 0.564688,0 1,0.466562 1,1.03125 0,0.564688 -0.435312,1.03125 -1,1.03125 -0.564688,0 -1.03125,-0.466562 -1.03125,-1.03125 0,-0.564688 0.466562,-1.03125 1.03125,-1.03125 z m -41.90625,0.4375 c 0.242009,0 0.4375,0.195491 0.4375,0.4375 0,0.242009 -0.195491,0.4375 -0.4375,0.4375 -0.242009,0 -0.4375,-0.195491 -0.4375,-0.4375 0,-0.242009 0.195491,-0.4375 0.4375,-0.4375 z m 47.03125,0.03125 c 0.609123,0 1.09375,0.311041 1.09375,0.6875 0,0.376459 -0.484627,0.65625 -1.09375,0.65625 -0.609123,0 -1.125,-0.279791 -1.125,-0.65625 0,-0.376459 0.515877,-0.6875 1.125,-0.6875 z m 9.96875,0.5625 c 0.403349,0 0.71875,0.346651 0.71875,0.75 0,0.403349 -0.315401,0.7187498 -0.71875,0.7187498 -0.403349,0 -0.75,-0.3154008 -0.75,-0.7187498 0,-0.403349 0.346651,-0.75 0.75,-0.75 z m -40.625,0.3125 c 0.510908,0 0.9375,0.395341 0.9375,0.9062498 0,0.510908 -0.426592,0.9375 -0.9375,0.9375 -0.510908,0 -0.90625,-0.426592 -0.90625,-0.9375 0,-0.5109088 0.395342,-0.9062498 0.90625,-0.9062498 z m -24.9062499,0.84375 c 0.6453579,0 1.15625,0.5108918 1.15625,1.1562498 0,0.6453579 -0.5108921,1.1874999 -1.15625,1.1874999 -0.6453579,0 -1.15625,-0.542142 -1.15625,-1.1874999 0,-0.645358 0.5108921,-1.1562498 1.15625,-1.1562498 z m 63.5624999,0.09375 c 0.672248,0 1.21875,0.546502 1.21875,1.21875 0,0.6722477 -0.546502,1.2187497 -1.21875,1.2187497 -0.672248,0 -1.21875,-0.546502 -1.21875,-1.2187497 0,-0.672248 0.546502,-1.21875 1.21875,-1.21875 z m -26.15625,0.5 c 0.349569,0 0.625,0.465636 0.625,1.03125 0,0.5656137 -0.275431,1.0312497 -0.625,1.0312497 -0.349569,0 -0.625,-0.465636 -0.625,-1.0312497 0,-0.565614 0.275431,-1.03125 0.625,-1.03125 z m 45.375,0.15625 c 0.537798,0 0.96875,0.430952 0.96875,0.96875 0,0.5377977 -0.430952,0.9687497 -0.96875,0.9687497 -0.0109,0 -0.02044,3.55e-4 -0.03125,0 -0.132163,0.132163 -0.298326,0.21875 -0.5,0.21875 -0.403349,0 -0.75,-0.315401 -0.75,-0.71875 0,-0.24926 0.153151,-0.4619647 0.34375,-0.5937497 0.06524,-0.474446 0.445124,-0.84375 0.9375,-0.84375 z m -50.15625,1.1249997 c 0.537798,0 0.96875,0.430952 0.96875,0.96875 0,0.537798 -0.430952,0.96875 -0.96875,0.96875 -0.537798,0 -1,-0.430952 -1,-0.96875 0,-0.537798 0.462202,-0.96875 1,-0.96875 z m -11.6875,0.1875 c 0.349569,0 0.65625,0.275431 0.65625,0.625 0,0.349569 -0.306681,0.625 -0.65625,0.625 -0.349569,0 -0.625,-0.275431 -0.625,-0.625 0,-0.349569 0.275431,-0.625 0.625,-0.625 z m 28.28125,0.625 c 0.403349,0 0.75,0.315401 0.75,0.71875 0,0.403349 -0.346651,0.75 -0.75,0.75 -0.403349,0 -0.71875,-0.346651 -0.71875,-0.75 0,-0.403349 0.315401,-0.71875 0.71875,-0.71875 z m -38.75,1.09375 c 0.403349,0 0.71875,0.346651 0.71875,0.75 0,0.403349 -0.315401,0.71875 -0.71875,0.71875 -0.403349,0 -0.71875,-0.315401 -0.71875,-0.71875 0,-0.403349 0.315401,-0.75 0.71875,-0.75 z m 65.03125,0.09375 c 0.403349,0 0.71875,0.315401 0.71875,0.71875 0,0.403349 -0.315401,0.71875 -0.71875,0.71875 -0.403349,0 -0.71875,-0.315401 -0.71875,-0.71875 0,-0.403349 0.315401,-0.71875 0.71875,-0.71875 z m -73.8437499,0.4375 c 0.3764588,0 0.65625,0.515877 0.65625,1.125 0,0.609123 -0.2797912,1.09375 -0.65625,1.09375 -0.1882294,0 -0.3766476,-0.144162 -0.5,-0.34375 -0.1156819,0.211627 -0.3355705,0.375 -0.59375,0.375 -0.3764588,0 -0.6875,-0.311041 -0.6875,-0.6875 0,-0.376459 0.3110412,-0.6875 0.6875,-0.6875 0.159271,0 0.2902088,0.06471 0.40625,0.15625 0.030169,-0.564 0.3311063,-1.03125 0.6875,-1.03125 z m 78.4687499,0.875 c 0.322679,0 0.59375,0.415394 0.59375,0.9375 0,0.522106 -0.271071,0.9375 -0.59375,0.9375 -0.322679,0 -0.59375,-0.415394 -0.59375,-0.9375 0,-0.522106 0.271071,-0.9375 0.59375,-0.9375 z m -9.9375,0.3125 c 0.349569,0 0.625,0.275431 0.625,0.625 0,0.349569 -0.275431,0.625 -0.625,0.625 -0.174784,0 -0.354208,-0.07296 -0.46875,-0.1875 0.0047,0.04617 0.03125,0.07668 0.03125,0.125 0,0.478597 -0.266711,0.875 -0.5625,0.875 -0.295789,0 -0.53125,-0.396403 -0.53125,-0.875 0,-0.478597 0.235461,-0.84375 0.53125,-0.84375 0.13557,0 0.280654,0.08438 0.375,0.21875 0.03414,-0.317367 0.298564,-0.5625 0.625,-0.5625 z m -46.78125,0.59375 c 0.457129,0 0.8125,0.386621 0.8125,0.84375 0,0.457129 -0.355371,0.8125 -0.8125,0.8125 -0.457129,0 -0.84375,-0.355371 -0.84375,-0.8125 0,-0.457129 0.386621,-0.84375 0.84375,-0.84375 z m 35.0625,0.59375 c 0.161339,0 0.28125,0.207697 0.28125,0.46875 0,0.261053 -0.119911,0.46875 -0.28125,0.46875 -0.161339,0 -0.3125,-0.207697 -0.3125,-0.46875 0,-0.261053 0.151161,-0.46875 0.3125,-0.46875 z"
       style="fill:url(#linearGradient16276);fill-opacity:1;stroke:none;filter:url(#filter15584)" />
    <g
       transform="matrix(0.93086838,0,0,0.93086838,9.0301393,12.321654)"
       id="g15779">
      <path
         style="fill:none;stroke:#f9efdc;stroke-width:1px;stroke-linecap:butt;stroke-linejoin:miter;stroke-opacity:1"
         d="m 1.0711469,0.5859759 c 0,0 -0.29213095,-4.4793417 2.7265558,-4.7714727 C 6.8163895,-4.4776277 10.127207,0.00171394 15.093434,-0.58254802 20.059661,-1.16681 20.7413,-1.16681 21.228185,-1.16681 c 0.486885,0 0.09738,-1.0711469 3.700325,-1.0711469 3.602949,0 7.580599,1.2940264 10.614093,0.681639 3.214704,-0.6489693 1.310377,-2.4987847 7.692782,-2.1422939 9.177054,0.5125867 10.528013,0.5198625 16.067204,0 5.108333,-0.4794258 12.700172,4.02258104 15.093434,3.01868679 1.983679,-0.83208779 2.629179,-0.19475399 3.992457,0.19475399 1.363278,0.38950797 1.850162,0.58426196 3.895079,-0.38950798 2.044917,-0.9737699 4.228295,-4.8905303 5.355735,-3.7977027 2.372827,0.9626179 2.212976,2.009863 1.363278,4.28458767"
         id="path15777"
         sodipodi:nodetypes="csssssssssscc" />
      <path
         style="fill:none;stroke:#c8cad1;stroke-width:1px;stroke-linecap:butt;stroke-linejoin:miter;stroke-opacity:1"
         d="M -0.19475399,0.09909094 C 3.1854604,2.5021656 86.889677,2.1654297 90.171096,-0.09566305"
         id="path15606"
         sodipodi:nodetypes="cc" />
      <path
         sodipodi:type="arc"
         style="opacity:0.8558559;fill:#ffffff;fill-opacity:1;stroke:none"
         id="path15608"
         sodipodi:cx="8.8126183"
         sodipodi:cy="14.900393"
         sodipodi:rx="1.7527859"
         sodipodi:ry="1.7527859"
         d="m 10.565404,14.900393 c 0,0.968036 -0.7847488,1.752785 -1.7527857,1.752785 -0.968037,0 -1.752786,-0.784749 -1.752786,-1.752785 0,-0.968037 0.784749,-1.752786 1.752786,-1.752786 0.9649486,0 1.7484127,0.779935 1.7527677,1.744874 l -1.7527677,0.0079 z"
         sodipodi:start="0"
         sodipodi:end="6.2786715"
         transform="matrix(0.75000001,0,0,0.79166667,0.40168015,3.1772812)" />
      <path
         transform="matrix(0.36111113,0,0,0.38117286,7.4804467,9.8185539)"
         sodipodi:end="6.2786715"
         sodipodi:start="0"
         d="m 10.565404,14.900393 c 0,0.968036 -0.7847488,1.752785 -1.7527857,1.752785 -0.968037,0 -1.752786,-0.784749 -1.752786,-1.752785 0,-0.968037 0.784749,-1.752786 1.752786,-1.752786 0.9649486,0 1.7484127,0.779935 1.7527677,1.744874 l -1.7527677,0.0079 z"
         sodipodi:ry="1.7527859"
         sodipodi:rx="1.7527859"
         sodipodi:cy="14.900393"
         sodipodi:cx="8.8126183"
         id="path15610"
         style="opacity:0.8558559;fill:#ffffff;fill-opacity:1;stroke:none"
         sodipodi:type="arc" />
      <path
         sodipodi:type="arc"
         style="opacity:0.8558559;fill:#ffffff;fill-opacity:1;stroke:none"
         id="path15612"
         sodipodi:cx="8.8126183"
         sodipodi:cy="14.900393"
         sodipodi:rx="1.7527859"
         sodipodi:ry="1.7527859"
         d="m 10.565404,14.900393 c 0,0.968036 -0.7847488,1.752785 -1.7527857,1.752785 -0.968037,0 -1.752786,-0.784749 -1.752786,-1.752785 0,-0.968037 0.784749,-1.752786 1.752786,-1.752786 0.9649486,0 1.7484127,0.779935 1.7527677,1.744874 l -1.7527677,0.0079 z"
         sodipodi:start="0"
         sodipodi:end="6.2786715"
         transform="matrix(0.2032164,0,0,0.2145062,12.733679,11.815068)" />
      <path
         transform="matrix(0.38742692,0,0,0.40895064,13.039904,8.3821961)"
         sodipodi:end="6.2786715"
         sodipodi:start="0"
         d="m 10.565404,14.900393 c 0,0.968036 -0.7847488,1.752785 -1.7527857,1.752785 -0.968037,0 -1.752786,-0.784749 -1.752786,-1.752785 0,-0.968037 0.784749,-1.752786 1.752786,-1.752786 0.9649486,0 1.7484127,0.779935 1.7527677,1.744874 l -1.7527677,0.0079 z"
         sodipodi:ry="1.7527859"
         sodipodi:rx="1.7527859"
         sodipodi:cy="14.900393"
         sodipodi:cx="8.8126183"
         id="path15614"
         style="opacity:0.8558559;fill:#ffffff;fill-opacity:1;stroke:none"
         sodipodi:type="arc" />
      <path
         transform="matrix(0.75000001,0,0,0.79166667,0.40168015,3.1772812)"
         sodipodi:end="6.2786715"
         sodipodi:start="0"
         d="m 10.565404,14.900393 c 0,0.968036 -0.7847488,1.752785 -1.7527857,1.752785 -0.968037,0 -1.752786,-0.784749 -1.752786,-1.752785 0,-0.968037 0.784749,-1.752786 1.752786,-1.752786 0.9649486,0 1.7484127,0.779935 1.7527677,1.744874 l -1.7527677,0.0079 z"
         sodipodi:ry="1.7527859"
         sodipodi:rx="1.7527859"
         sodipodi:cy="14.900393"
         sodipodi:cx="8.8126183"
         id="path15616"
         style="opacity:0.8558559;fill:#ffffff;fill-opacity:1;stroke:none"
         sodipodi:type="arc" />
      <path
         sodipodi:type="arc"
         style="opacity:0.8558559;fill:#ffffff;fill-opacity:1;stroke:none"
         id="path15618"
         sodipodi:cx="8.8126183"
         sodipodi:cy="14.900393"
         sodipodi:rx="1.7527859"
         sodipodi:ry="1.7527859"
         d="m 10.565404,14.900393 c 0,0.968036 -0.7847488,1.752785 -1.7527857,1.752785 -0.968037,0 -1.752786,-0.784749 -1.752786,-1.752785 0,-0.968037 0.784749,-1.752786 1.752786,-1.752786 0.9649486,0 1.7484127,0.779935 1.7527677,1.744874 l -1.7527677,0.0079 z"
         sodipodi:start="0"
         sodipodi:end="6.2786715"
         transform="matrix(0.36111113,0,0,0.38117286,7.4804467,9.8185539)" />
      <path
         transform="matrix(0.2032164,0,0,0.2145062,12.733679,11.815068)"
         sodipodi:end="6.2786715"
         sodipodi:start="0"
         d="m 10.565404,14.900393 c 0,0.968036 -0.7847488,1.752785 -1.7527857,1.752785 -0.968037,0 -1.752786,-0.784749 -1.752786,-1.752785 0,-0.968037 0.784749,-1.752786 1.752786,-1.752786 0.9649486,0 1.7484127,0.779935 1.7527677,1.744874 l -1.7527677,0.0079 z"
         sodipodi:ry="1.7527859"
         sodipodi:rx="1.7527859"
         sodipodi:cy="14.900393"
         sodipodi:cx="8.8126183"
         id="path15620"
         style="opacity:0.8558559;fill:#ffffff;fill-opacity:1;stroke:none"
         sodipodi:type="arc" />
      <path
         sodipodi:type="arc"
         style="opacity:0.8558559;fill:#ffffff;fill-opacity:1;stroke:none"
         id="path15622"
         sodipodi:cx="8.8126183"
         sodipodi:cy="14.900393"
         sodipodi:rx="1.7527859"
         sodipodi:ry="1.7527859"
         d="m 10.565404,14.900393 c 0,0.968036 -0.7847488,1.752785 -1.7527857,1.752785 -0.968037,0 -1.752786,-0.784749 -1.752786,-1.752785 0,-0.968037 0.784749,-1.752786 1.752786,-1.752786 0.9649486,0 1.7484127,0.779935 1.7527677,1.744874 l -1.7527677,0.0079 z"
         sodipodi:start="0"
         sodipodi:end="6.2786715"
         transform="matrix(0.38742692,0,0,0.40895064,13.039904,8.3821961)" />
      <path
         transform="matrix(0.75000001,0,0,0.79166667,0.40168015,3.1772812)"
         sodipodi:end="6.2786715"
         sodipodi:start="0"
         d="m 10.565404,14.900393 c 0,0.968036 -0.7847488,1.752785 -1.7527857,1.752785 -0.968037,0 -1.752786,-0.784749 -1.752786,-1.752785 0,-0.968037 0.784749,-1.752786 1.752786,-1.752786 0.9649486,0 1.7484127,0.779935 1.7527677,1.744874 l -1.7527677,0.0079 z"
         sodipodi:ry="1.7527859"
         sodipodi:rx="1.7527859"
         sodipodi:cy="14.900393"
         sodipodi:cx="8.8126183"
         id="path15624"
         style="opacity:0.8558559;fill:#ffffff;fill-opacity:1;stroke:none"
         sodipodi:type="arc" />
      <path
         sodipodi:type="arc"
         style="opacity:0.8558559;fill:#ffffff;fill-opacity:1;stroke:none"
         id="path15626"
         sodipodi:cx="8.8126183"
         sodipodi:cy="14.900393"
         sodipodi:rx="1.7527859"
         sodipodi:ry="1.7527859"
         d="m 10.565404,14.900393 c 0,0.968036 -0.7847488,1.752785 -1.7527857,1.752785 -0.968037,0 -1.752786,-0.784749 -1.752786,-1.752785 0,-0.968037 0.784749,-1.752786 1.752786,-1.752786 0.9649486,0 1.7484127,0.779935 1.7527677,1.744874 l -1.7527677,0.0079 z"
         sodipodi:start="0"
         sodipodi:end="6.2786715"
         transform="matrix(0.36111113,0,0,0.38117286,7.4804467,9.8185539)" />
      <path
         transform="matrix(0.2032164,0,0,0.2145062,12.733679,11.815068)"
         sodipodi:end="6.2786715"
         sodipodi:start="0"
         d="m 10.565404,14.900393 c 0,0.968036 -0.7847488,1.752785 -1.7527857,1.752785 -0.968037,0 -1.752786,-0.784749 -1.752786,-1.752785 0,-0.968037 0.784749,-1.752786 1.752786,-1.752786 0.9649486,0 1.7484127,0.779935 1.7527677,1.744874 l -1.7527677,0.0079 z"
         sodipodi:ry="1.7527859"
         sodipodi:rx="1.7527859"
         sodipodi:cy="14.900393"
         sodipodi:cx="8.8126183"
         id="path15628"
         style="opacity:0.8558559;fill:#ffffff;fill-opacity:1;stroke:none"
         sodipodi:type="arc" />
      <path
         sodipodi:type="arc"
         style="opacity:0.8558559;fill:#ffffff;fill-opacity:1;stroke:none"
         id="path15630"
         sodipodi:cx="8.8126183"
         sodipodi:cy="14.900393"
         sodipodi:rx="1.7527859"
         sodipodi:ry="1.7527859"
         d="m 10.565404,14.900393 c 0,0.968036 -0.7847488,1.752785 -1.7527857,1.752785 -0.968037,0 -1.752786,-0.784749 -1.752786,-1.752785 0,-0.968037 0.784749,-1.752786 1.752786,-1.752786 0.9649486,0 1.7484127,0.779935 1.7527677,1.744874 l -1.7527677,0.0079 z"
         sodipodi:start="0"
         sodipodi:end="6.2786715"
         transform="matrix(0.38742692,0,0,0.40895064,13.039904,8.3821961)" />
      <path
         sodipodi:type="arc"
         style="opacity:0.8558559;fill:#ffffff;fill-opacity:1;stroke:none"
         id="path15632"
         sodipodi:cx="8.8126183"
         sodipodi:cy="14.900393"
         sodipodi:rx="1.7527859"
         sodipodi:ry="1.7527859"
         d="m 10.565404,14.900393 c 0,0.968036 -0.7847488,1.752785 -1.7527857,1.752785 -0.968037,0 -1.752786,-0.784749 -1.752786,-1.752785 0,-0.968037 0.784749,-1.752786 1.752786,-1.752786 0.9649486,0 1.7484127,0.779935 1.7527677,1.744874 l -1.7527677,0.0079 z"
         sodipodi:start="0"
         sodipodi:end="6.2786715"
         transform="matrix(0.75000001,0,0,0.79166667,0.40168015,3.1772812)" />
      <path
         transform="matrix(0.36111113,0,0,0.38117286,7.4804467,9.8185539)"
         sodipodi:end="6.2786715"
         sodipodi:start="0"
         d="m 10.565404,14.900393 c 0,0.968036 -0.7847488,1.752785 -1.7527857,1.752785 -0.968037,0 -1.752786,-0.784749 -1.752786,-1.752785 0,-0.968037 0.784749,-1.752786 1.752786,-1.752786 0.9649486,0 1.7484127,0.779935 1.7527677,1.744874 l -1.7527677,0.0079 z"
         sodipodi:ry="1.7527859"
         sodipodi:rx="1.7527859"
         sodipodi:cy="14.900393"
         sodipodi:cx="8.8126183"
         id="path15634"
         style="opacity:0.8558559;fill:#ffffff;fill-opacity:1;stroke:none"
         sodipodi:type="arc" />
      <path
         sodipodi:type="arc"
         style="opacity:0.8558559;fill:#ffffff;fill-opacity:1;stroke:none"
         id="path15636"
         sodipodi:cx="8.8126183"
         sodipodi:cy="14.900393"
         sodipodi:rx="1.7527859"
         sodipodi:ry="1.7527859"
         d="m 10.565404,14.900393 c 0,0.968036 -0.7847488,1.752785 -1.7527857,1.752785 -0.968037,0 -1.752786,-0.784749 -1.752786,-1.752785 0,-0.968037 0.784749,-1.752786 1.752786,-1.752786 0.9649486,0 1.7484127,0.779935 1.7527677,1.744874 l -1.7527677,0.0079 z"
         sodipodi:start="0"
         sodipodi:end="6.2786715"
         transform="matrix(0.2032164,0,0,0.2145062,12.733679,11.815068)" />
      <path
         transform="matrix(0.38742692,0,0,0.40895064,13.039904,8.3821961)"
         sodipodi:end="6.2786715"
         sodipodi:start="0"
         d="m 10.565404,14.900393 c 0,0.968036 -0.7847488,1.752785 -1.7527857,1.752785 -0.968037,0 -1.752786,-0.784749 -1.752786,-1.752785 0,-0.968037 0.784749,-1.752786 1.752786,-1.752786 0.9649486,0 1.7484127,0.779935 1.7527677,1.744874 l -1.7527677,0.0079 z"
         sodipodi:ry="1.7527859"
         sodipodi:rx="1.7527859"
         sodipodi:cy="14.900393"
         sodipodi:cx="8.8126183"
         id="path15638"
         style="opacity:0.8558559;fill:#ffffff;fill-opacity:1;stroke:none"
         sodipodi:type="arc" />
      <path
         transform="matrix(0.52670314,0,0,0.55596442,19.356414,6.1750289)"
         sodipodi:end="6.2786715"
         sodipodi:start="0"
         d="m 10.565404,14.900393 c 0,0.968036 -0.7847488,1.752785 -1.7527857,1.752785 -0.968037,0 -1.752786,-0.784749 -1.752786,-1.752785 0,-0.968037 0.784749,-1.752786 1.752786,-1.752786 0.9649486,0 1.7484127,0.779935 1.7527677,1.744874 l -1.7527677,0.0079 z"
         sodipodi:ry="1.7527859"
         sodipodi:rx="1.7527859"
         sodipodi:cy="14.900393"
         sodipodi:cx="8.8126183"
         id="path15640"
         style="opacity:0.8558559;fill:#ffffff;fill-opacity:1;stroke:none"
         sodipodi:type="arc" />
      <path
         sodipodi:type="arc"
         style="opacity:0.8558559;fill:#ffffff;fill-opacity:1;stroke:none"
         id="path15642"
         sodipodi:cx="8.8126183"
         sodipodi:cy="14.900393"
         sodipodi:rx="1.7527859"
         sodipodi:ry="1.7527859"
         d="m 10.565404,14.900393 c 0,0.968036 -0.7847488,1.752785 -1.7527857,1.752785 -0.968037,0 -1.752786,-0.784749 -1.752786,-1.752785 0,-0.968037 0.784749,-1.752786 1.752786,-1.752786 0.9649486,0 1.7484127,0.779935 1.7527677,1.744874 l -1.7527677,0.0079 z"
         sodipodi:start="0"
         sodipodi:end="6.2786715"
         transform="matrix(0.36111113,0,0,0.38117286,70.242776,8.4386246)" />
      <path
         transform="matrix(0.2032164,0,0,0.2145062,50.079011,14.354336)"
         sodipodi:end="6.2786715"
         sodipodi:start="0"
         d="m 10.565404,14.900393 c 0,0.968036 -0.7847488,1.752785 -1.7527857,1.752785 -0.968037,0 -1.752786,-0.784749 -1.752786,-1.752785 0,-0.968037 0.784749,-1.752786 1.752786,-1.752786 0.9649486,0 1.7484127,0.779935 1.7527677,1.744874 l -1.7527677,0.0079 z"
         sodipodi:ry="1.7527859"
         sodipodi:rx="1.7527859"
         sodipodi:cy="14.900393"
         sodipodi:cx="8.8126183"
         id="path15644"
         style="opacity:0.8558559;fill:#ffffff;fill-opacity:1;stroke:none"
         sodipodi:type="arc" />
      <path
         sodipodi:type="arc"
         style="fill:#ffffff;fill-opacity:1;stroke:none"
         id="path15646"
         sodipodi:cx="8.8126183"
         sodipodi:cy="14.900393"
         sodipodi:rx="1.7527859"
         sodipodi:ry="1.7527859"
         d="m 10.565404,14.900393 c 0,0.968036 -0.7847488,1.752785 -1.7527857,1.752785 -0.968037,0 -1.752786,-0.784749 -1.752786,-1.752785 0,-0.968037 0.784749,-1.752786 1.752786,-1.752786 0.9649486,0 1.7484127,0.779935 1.7527677,1.744874 l -1.7527677,0.0079 z"
         sodipodi:start="0"
         sodipodi:end="6.2786715"
         transform="matrix(0.38742692,0,0,0.40895064,1.7626529,3.3696868)" />
      <path
         sodipodi:type="arc"
         style="opacity:0.8558559;fill:#ffffff;fill-opacity:1;stroke:none"
         id="path15648"
         sodipodi:cx="8.8126183"
         sodipodi:cy="14.900393"
         sodipodi:rx="1.7527859"
         sodipodi:ry="1.7527859"
         d="m 10.565404,14.900393 c 0,0.968036 -0.7847488,1.752785 -1.7527857,1.752785 -0.968037,0 -1.752786,-0.784749 -1.752786,-1.752785 0,-0.968037 0.784749,-1.752786 1.752786,-1.752786 0.9649486,0 1.7484127,0.779935 1.7527677,1.744874 l -1.7527677,0.0079 z"
         sodipodi:start="0"
         sodipodi:end="6.2786715"
         transform="matrix(0.60113543,0,0,0.63453183,58.179636,4.3810858)" />
      <path
         transform="matrix(0.36111113,0,0,0.38117286,74.364193,0.10758049)"
         sodipodi:end="6.2786715"
         sodipodi:start="0"
         d="m 10.565404,14.900393 c 0,0.968036 -0.7847488,1.752785 -1.7527857,1.752785 -0.968037,0 -1.752786,-0.784749 -1.752786,-1.752785 0,-0.968037 0.784749,-1.752786 1.752786,-1.752786 0.9649486,0 1.7484127,0.779935 1.7527677,1.744874 l -1.7527677,0.0079 z"
         sodipodi:ry="1.7527859"
         sodipodi:rx="1.7527859"
         sodipodi:cy="14.900393"
         sodipodi:cx="8.8126183"
         id="path15650"
         style="fill:#ffffff;fill-opacity:1;stroke:none"
         sodipodi:type="arc" />
      <path
         sodipodi:type="arc"
         style="fill:#ffffff;fill-opacity:1;stroke:none"
         id="path15652"
         sodipodi:cx="8.8126183"
         sodipodi:cy="14.900393"
         sodipodi:rx="1.7527859"
         sodipodi:ry="1.7527859"
         d="m 10.565404,14.900393 c 0,0.968036 -0.7847488,1.752785 -1.7527857,1.752785 -0.968037,0 -1.752786,-0.784749 -1.752786,-1.752785 0,-0.968037 0.784749,-1.752786 1.752786,-1.752786 0.9649486,0 1.7484127,0.779935 1.7527677,1.744874 l -1.7527677,0.0079 z"
         sodipodi:start="0"
         sodipodi:end="6.2786715"
         transform="matrix(0.2032164,0,0,0.2145062,34.709089,4.5455591)" />
      <path
         transform="matrix(0.38742692,0,0,0.40895064,29.955766,10.774274)"
         sodipodi:end="6.2786715"
         sodipodi:start="0"
         d="m 10.565404,14.900393 c 0,0.968036 -0.7847488,1.752785 -1.7527857,1.752785 -0.968037,0 -1.752786,-0.784749 -1.752786,-1.752785 0,-0.968037 0.784749,-1.752786 1.752786,-1.752786 0.9649486,0 1.7484127,0.779935 1.7527677,1.744874 l -1.7527677,0.0079 z"
         sodipodi:ry="1.7527859"
         sodipodi:rx="1.7527859"
         sodipodi:cy="14.900393"
         sodipodi:cx="8.8126183"
         id="path15654"
         style="opacity:0.8558559;fill:#ffffff;fill-opacity:1;stroke:none"
         sodipodi:type="arc" />
      <path
         sodipodi:type="arc"
         style="fill:#ffffff;fill-opacity:1;stroke:none"
         id="path15656"
         sodipodi:cx="8.8126183"
         sodipodi:cy="14.900393"
         sodipodi:rx="1.7527859"
         sodipodi:ry="1.7527859"
         d="m 10.565404,14.900393 c 0,0.968036 -0.7847488,1.752785 -1.7527857,1.752785 -0.968037,0 -1.752786,-0.784749 -1.752786,-1.752785 0,-0.968037 0.784749,-1.752786 1.752786,-1.752786 0.9649486,0 1.7484127,0.779935 1.7527677,1.744874 l -1.7527677,0.0079 z"
         sodipodi:start="0"
         sodipodi:end="6.2786715"
         transform="matrix(0.75000001,0,0,0.79166667,38.88775,-1.7610248)" />
      <path
         transform="matrix(0.36111113,0,0,0.38117286,49.006028,8.6123363)"
         sodipodi:end="6.2786715"
         sodipodi:start="0"
         d="m 10.565404,14.900393 c 0,0.968036 -0.7847488,1.752785 -1.7527857,1.752785 -0.968037,0 -1.752786,-0.784749 -1.752786,-1.752785 0,-0.968037 0.784749,-1.752786 1.752786,-1.752786 0.9649486,0 1.7484127,0.779935 1.7527677,1.744874 l -1.7527677,0.0079 z"
         sodipodi:ry="1.7527859"
         sodipodi:rx="1.7527859"
         sodipodi:cy="14.900393"
         sodipodi:cx="8.8126183"
         id="path15658"
         style="opacity:0.8558559;fill:#ffffff;fill-opacity:1;stroke:none"
         sodipodi:type="arc" />
      <path
         sodipodi:type="arc"
         style="fill:#ffffff;fill-opacity:1;stroke:none"
         id="path15660"
         sodipodi:cx="8.8126183"
         sodipodi:cy="14.900393"
         sodipodi:rx="1.7527859"
         sodipodi:ry="1.7527859"
         d="m 10.565404,14.900393 c 0,0.968036 -0.7847488,1.752785 -1.7527857,1.752785 -0.968037,0 -1.752786,-0.784749 -1.752786,-1.752785 0,-0.968037 0.784749,-1.752786 1.752786,-1.752786 0.9649486,0 1.7484127,0.779935 1.7527677,1.744874 l -1.7527677,0.0079 z"
         sodipodi:start="0"
         sodipodi:end="6.2786715"
         transform="matrix(0.2032164,0,0,0.2145062,81.880955,4.6231329)" />
      <path
         transform="matrix(0.38742692,0,0,0.40895064,38.838882,-0.62199379)"
         sodipodi:end="6.2786715"
         sodipodi:start="0"
         d="m 10.565404,14.900393 c 0,0.968036 -0.7847488,1.752785 -1.7527857,1.752785 -0.968037,0 -1.752786,-0.784749 -1.752786,-1.752785 0,-0.968037 0.784749,-1.752786 1.752786,-1.752786 0.9649486,0 1.7484127,0.779935 1.7527677,1.744874 l -1.7527677,0.0079 z"
         sodipodi:ry="1.7527859"
         sodipodi:rx="1.7527859"
         sodipodi:cy="14.900393"
         sodipodi:cx="8.8126183"
         id="path15662"
         style="fill:#ffffff;fill-opacity:1;stroke:none"
         sodipodi:type="arc" />
      <path
         transform="matrix(0.39644663,0,0,0.41847144,70.841805,8.527281)"
         sodipodi:end="6.2786715"
         sodipodi:start="0"
         d="m 10.565404,14.900393 c 0,0.968036 -0.7847488,1.752785 -1.7527857,1.752785 -0.968037,0 -1.752786,-0.784749 -1.752786,-1.752785 0,-0.968037 0.784749,-1.752786 1.752786,-1.752786 0.9649486,0 1.7484127,0.779935 1.7527677,1.744874 l -1.7527677,0.0079 z"
         sodipodi:ry="1.7527859"
         sodipodi:rx="1.7527859"
         sodipodi:cy="14.900393"
         sodipodi:cx="8.8126183"
         id="path15664"
         style="opacity:0.8558559;fill:#ffffff;fill-opacity:1;stroke:none"
         sodipodi:type="arc" />
      <path
         sodipodi:type="arc"
         style="opacity:0.8558559;fill:#ffffff;fill-opacity:1;stroke:none"
         id="path15666"
         sodipodi:cx="8.8126183"
         sodipodi:cy="14.900393"
         sodipodi:rx="1.7527859"
         sodipodi:ry="1.7527859"
         d="m 10.565404,14.900393 c 0,0.968036 -0.7847488,1.752785 -1.7527857,1.752785 -0.968037,0 -1.752786,-0.784749 -1.752786,-1.752785 0,-0.968037 0.784749,-1.752786 1.752786,-1.752786 0.9649486,0 1.7484127,0.779935 1.7527677,1.744874 l -1.7527677,0.0079 z"
         sodipodi:start="0"
         sodipodi:end="6.2786715"
         transform="matrix(0.36111113,0,0,0.38117286,52.891962,9.2964518)" />
      <path
         transform="matrix(0.2032164,0,0,0.2145062,55.101796,-2.6749134)"
         sodipodi:end="6.2786715"
         sodipodi:start="0"
         d="m 10.565404,14.900393 c 0,0.968036 -0.7847488,1.752785 -1.7527857,1.752785 -0.968037,0 -1.752786,-0.784749 -1.752786,-1.752785 0,-0.968037 0.784749,-1.752786 1.752786,-1.752786 0.9649486,0 1.7484127,0.779935 1.7527677,1.744874 l -1.7527677,0.0079 z"
         sodipodi:ry="1.7527859"
         sodipodi:rx="1.7527859"
         sodipodi:cy="14.900393"
         sodipodi:cx="8.8126183"
         id="path15668"
         style="fill:#ffffff;fill-opacity:1;stroke:none"
         sodipodi:type="arc" />
      <path
         sodipodi:type="arc"
         style="opacity:0.8558559;fill:#ffffff;fill-opacity:1;stroke:none"
         id="path15670"
         sodipodi:cx="8.8126183"
         sodipodi:cy="14.900393"
         sodipodi:rx="1.7527859"
         sodipodi:ry="1.7527859"
         d="m 10.565404,14.900393 c 0,0.968036 -0.7847488,1.752785 -1.7527857,1.752785 -0.968037,0 -1.752786,-0.784749 -1.752786,-1.752785 0,-0.968037 0.784749,-1.752786 1.752786,-1.752786 0.9649486,0 1.7484127,0.779935 1.7527677,1.744874 l -1.7527677,0.0079 z"
         sodipodi:start="0"
         sodipodi:end="6.2786715"
         transform="matrix(0.38742692,0,0,0.40895064,60.917584,11.244959)" />
      <path
         transform="matrix(0.75000001,0,0,0.79166667,72.766045,2.7020544)"
         sodipodi:end="6.2786715"
         sodipodi:start="0"
         d="m 10.565404,14.900393 c 0,0.968036 -0.7847488,1.752785 -1.7527857,1.752785 -0.968037,0 -1.752786,-0.784749 -1.752786,-1.752785 0,-0.968037 0.784749,-1.752786 1.752786,-1.752786 0.9649486,0 1.7484127,0.779935 1.7527677,1.744874 l -1.7527677,0.0079 z"
         sodipodi:ry="1.7527859"
         sodipodi:rx="1.7527859"
         sodipodi:cy="14.900393"
         sodipodi:cx="8.8126183"
         id="path15672"
         style="opacity:0.8558559;fill:#ffffff;fill-opacity:1;stroke:none"
         sodipodi:type="arc" />
      <path
         sodipodi:type="arc"
         style="opacity:0.8558559;fill:#ffffff;fill-opacity:1;stroke:none"
         id="path15674"
         sodipodi:cx="8.8126183"
         sodipodi:cy="14.900393"
         sodipodi:rx="1.7527859"
         sodipodi:ry="1.7527859"
         d="m 10.565404,14.900393 c 0,0.968036 -0.7847488,1.752785 -1.7527857,1.752785 -0.968037,0 -1.752786,-0.784749 -1.752786,-1.752785 0,-0.968037 0.784749,-1.752786 1.752786,-1.752786 0.9649486,0 1.7484127,0.779935 1.7527677,1.744874 l -1.7527677,0.0079 z"
         sodipodi:start="0"
         sodipodi:end="6.2786715"
         transform="matrix(0.36111113,0,0,0.38117286,44.600836,1.034334)" />
      <path
         transform="matrix(0.2032164,0,0,0.2145062,77.366631,8.9636843)"
         sodipodi:end="6.2786715"
         sodipodi:start="0"
         d="m 10.565404,14.900393 c 0,0.968036 -0.7847488,1.752785 -1.7527857,1.752785 -0.968037,0 -1.752786,-0.784749 -1.752786,-1.752785 0,-0.968037 0.784749,-1.752786 1.752786,-1.752786 0.9649486,0 1.7484127,0.779935 1.7527677,1.744874 l -1.7527677,0.0079 z"
         sodipodi:ry="1.7527859"
         sodipodi:rx="1.7527859"
         sodipodi:cy="14.900393"
         sodipodi:cx="8.8126183"
         id="path15676"
         style="opacity:0.8558559;fill:#ffffff;fill-opacity:1;stroke:none"
         sodipodi:type="arc" />
      <path
         sodipodi:type="arc"
         style="opacity:0.8558559;fill:#ffffff;fill-opacity:1;stroke:none"
         id="path15678"
         sodipodi:cx="8.8126183"
         sodipodi:cy="14.900393"
         sodipodi:rx="1.7527859"
         sodipodi:ry="1.7527859"
         d="m 10.565404,14.900393 c 0,0.968036 -0.7847488,1.752785 -1.7527857,1.752785 -0.968037,0 -1.752786,-0.784749 -1.752786,-1.752785 0,-0.968037 0.784749,-1.752786 1.752786,-1.752786 0.9649486,0 1.7484127,0.779935 1.7527677,1.744874 l -1.7527677,0.0079 z"
         sodipodi:start="0"
         sodipodi:end="6.2786715"
         transform="matrix(0.38742692,0,0,0.40895064,60.407272,9.7504451)" />
      <path
         sodipodi:type="arc"
         style="opacity:0.8558559;fill:#ffffff;fill-opacity:1;stroke:none"
         id="path15680"
         sodipodi:cx="8.8126183"
         sodipodi:cy="14.900393"
         sodipodi:rx="1.7527859"
         sodipodi:ry="1.7527859"
         d="m 10.565404,14.900393 c 0,0.968036 -0.7847488,1.752785 -1.7527857,1.752785 -0.968037,0 -1.752786,-0.784749 -1.752786,-1.752785 0,-0.968037 0.784749,-1.752786 1.752786,-1.752786 0.9649486,0 1.7484127,0.779935 1.7527677,1.744874 l -1.7527677,0.0079 z"
         sodipodi:start="0"
         sodipodi:end="6.2786715"
         transform="matrix(0.75000001,0,0,0.79166667,45.285331,4.3363031)" />
      <path
         transform="matrix(0.36111113,0,0,0.38117286,68.850366,9.3120423)"
         sodipodi:end="6.2786715"
         sodipodi:start="0"
         d="m 10.565404,14.900393 c 0,0.968036 -0.7847488,1.752785 -1.7527857,1.752785 -0.968037,0 -1.752786,-0.784749 -1.752786,-1.752785 0,-0.968037 0.784749,-1.752786 1.752786,-1.752786 0.9649486,0 1.7484127,0.779935 1.7527677,1.744874 l -1.7527677,0.0079 z"
         sodipodi:ry="1.7527859"
         sodipodi:rx="1.7527859"
         sodipodi:cy="14.900393"
         sodipodi:cx="8.8126183"
         id="path15682"
         style="opacity:0.8558559;fill:#ffffff;fill-opacity:1;stroke:none"
         sodipodi:type="arc" />
      <path
         sodipodi:type="arc"
         style="opacity:0.8558559;fill:#ffffff;fill-opacity:1;stroke:none"
         id="path15684"
         sodipodi:cx="8.8126183"
         sodipodi:cy="14.900393"
         sodipodi:rx="1.7527859"
         sodipodi:ry="1.7527859"
         d="m 10.565404,14.900393 c 0,0.968036 -0.7847488,1.752785 -1.7527857,1.752785 -0.968037,0 -1.752786,-0.784749 -1.752786,-1.752785 0,-0.968037 0.784749,-1.752786 1.752786,-1.752786 0.9649486,0 1.7484127,0.779935 1.7527677,1.744874 l -1.7527677,0.0079 z"
         sodipodi:start="0"
         sodipodi:end="6.2786715"
         transform="matrix(0.2032164,0,0,0.2145062,27.149711,11.383862)" />
      <path
         transform="matrix(0.38742692,0,0,0.40895064,3.1924683,8.0916427)"
         sodipodi:end="6.2786715"
         sodipodi:start="0"
         d="m 10.565404,14.900393 c 0,0.968036 -0.7847488,1.752785 -1.7527857,1.752785 -0.968037,0 -1.752786,-0.784749 -1.752786,-1.752785 0,-0.968037 0.784749,-1.752786 1.752786,-1.752786 0.9649486,0 1.7484127,0.779935 1.7527677,1.744874 l -1.7527677,0.0079 z"
         sodipodi:ry="1.7527859"
         sodipodi:rx="1.7527859"
         sodipodi:cy="14.900393"
         sodipodi:cx="8.8126183"
         id="path15686"
         style="opacity:0.8558559;fill:#ffffff;fill-opacity:1;stroke:none"
         sodipodi:type="arc" />
      <path
         sodipodi:type="arc"
         style="opacity:0.8558559;fill:#ffffff;fill-opacity:1;stroke:none"
         id="path15688"
         sodipodi:cx="8.8126183"
         sodipodi:cy="14.900393"
         sodipodi:rx="1.7527859"
         sodipodi:ry="1.7527859"
         d="m 10.565404,14.900393 c 0,0.968036 -0.7847488,1.752785 -1.7527857,1.752785 -0.968037,0 -1.752786,-0.784749 -1.752786,-1.752785 0,-0.968037 0.784749,-1.752786 1.752786,-1.752786 0.9649486,0 1.7484127,0.779935 1.7527677,1.744874 l -1.7527677,0.0079 z"
         sodipodi:start="0"
         sodipodi:end="6.2786715"
         transform="matrix(0.75000001,0,0,0.79166667,59.618765,2.0434623)" />
      <path
         transform="matrix(0.36111113,0,0,0.38117286,48.082253,9.8494184)"
         sodipodi:end="6.2786715"
         sodipodi:start="0"
         d="m 10.565404,14.900393 c 0,0.968036 -0.7847488,1.752785 -1.7527857,1.752785 -0.968037,0 -1.752786,-0.784749 -1.752786,-1.752785 0,-0.968037 0.784749,-1.752786 1.752786,-1.752786 0.9649486,0 1.7484127,0.779935 1.7527677,1.744874 l -1.7527677,0.0079 z"
         sodipodi:ry="1.7527859"
         sodipodi:rx="1.7527859"
         sodipodi:cy="14.900393"
         sodipodi:cx="8.8126183"
         id="path15690"
         style="opacity:0.8558559;fill:#ffffff;fill-opacity:1;stroke:none"
         sodipodi:type="arc" />
      <path
         sodipodi:type="arc"
         style="opacity:0.8558559;fill:#ffffff;fill-opacity:1;stroke:none"
         id="path15692"
         sodipodi:cx="8.8126183"
         sodipodi:cy="14.900393"
         sodipodi:rx="1.7527859"
         sodipodi:ry="1.7527859"
         d="m 10.565404,14.900393 c 0,0.968036 -0.7847488,1.752785 -1.7527857,1.752785 -0.968037,0 -1.752786,-0.784749 -1.752786,-1.752785 0,-0.968037 0.784749,-1.752786 1.752786,-1.752786 0.9649486,0 1.7484127,0.779935 1.7527677,1.744874 l -1.7527677,0.0079 z"
         sodipodi:start="0"
         sodipodi:end="6.2786715"
         transform="matrix(0.2032164,0,0,0.2145062,20.092347,12.061873)" />
      <path
         transform="matrix(0.38742692,0,0,0.40895064,21.375327,12.91854)"
         sodipodi:end="6.2786715"
         sodipodi:start="0"
         d="m 10.565404,14.900393 c 0,0.968036 -0.7847488,1.752785 -1.7527857,1.752785 -0.968037,0 -1.752786,-0.784749 -1.752786,-1.752785 0,-0.968037 0.784749,-1.752786 1.752786,-1.752786 0.9649486,0 1.7484127,0.779935 1.7527677,1.744874 l -1.7527677,0.0079 z"
         sodipodi:ry="1.7527859"
         sodipodi:rx="1.7527859"
         sodipodi:cy="14.900393"
         sodipodi:cx="8.8126183"
         id="path15694"
         style="opacity:0.8558559;fill:#ffffff;fill-opacity:1;stroke:none"
         sodipodi:type="arc" />
      <path
         transform="matrix(0.75000001,0,0,0.79166667,59.540521,5.1483315)"
         sodipodi:end="6.2786715"
         sodipodi:start="0"
         d="m 10.565404,14.900393 c 0,0.968036 -0.7847488,1.752785 -1.7527857,1.752785 -0.968037,0 -1.752786,-0.784749 -1.752786,-1.752785 0,-0.968037 0.784749,-1.752786 1.752786,-1.752786 0.9649486,0 1.7484127,0.779935 1.7527677,1.744874 l -1.7527677,0.0079 z"
         sodipodi:ry="1.7527859"
         sodipodi:rx="1.7527859"
         sodipodi:cy="14.900393"
         sodipodi:cx="8.8126183"
         id="path15696"
         style="opacity:0.8558559;fill:#ffffff;fill-opacity:1;stroke:none"
         sodipodi:type="arc" />
      <path
         sodipodi:type="arc"
         style="opacity:0.8558559;fill:#ffffff;fill-opacity:1;stroke:none"
         id="path15698"
         sodipodi:cx="8.8126183"
         sodipodi:cy="14.900393"
         sodipodi:rx="1.7527859"
         sodipodi:ry="1.7527859"
         d="m 10.565404,14.900393 c 0,0.968036 -0.7847488,1.752785 -1.7527857,1.752785 -0.968037,0 -1.752786,-0.784749 -1.752786,-1.752785 0,-0.968037 0.784749,-1.752786 1.752786,-1.752786 0.9649486,0 1.7484127,0.779935 1.7527677,1.744874 l -1.7527677,0.0079 z"
         sodipodi:start="0"
         sodipodi:end="6.2786715"
         transform="matrix(0.36111113,0,0,0.38117286,62.642937,16.848093)" />
      <path
         transform="matrix(0.2032164,0,0,0.2145062,41.232781,13.245853)"
         sodipodi:end="6.2786715"
         sodipodi:start="0"
         d="m 10.565404,14.900393 c 0,0.968036 -0.7847488,1.752785 -1.7527857,1.752785 -0.968037,0 -1.752786,-0.784749 -1.752786,-1.752785 0,-0.968037 0.784749,-1.752786 1.752786,-1.752786 0.9649486,0 1.7484127,0.779935 1.7527677,1.744874 l -1.7527677,0.0079 z"
         sodipodi:ry="1.7527859"
         sodipodi:rx="1.7527859"
         sodipodi:cy="14.900393"
         sodipodi:cx="8.8126183"
         id="path15700"
         style="opacity:0.8558559;fill:#ffffff;fill-opacity:1;stroke:none"
         sodipodi:type="arc" />
      <path
         sodipodi:type="arc"
         style="opacity:0.8558559;fill:#ffffff;fill-opacity:1;stroke:none"
         id="path15702"
         sodipodi:cx="8.8126183"
         sodipodi:cy="14.900393"
         sodipodi:rx="1.7527859"
         sodipodi:ry="1.7527859"
         d="m 10.565404,14.900393 c 0,0.968036 -0.7847488,1.752785 -1.7527857,1.752785 -0.968037,0 -1.752786,-0.784749 -1.752786,-1.752785 0,-0.968037 0.784749,-1.752786 1.752786,-1.752786 0.9649486,0 1.7484127,0.779935 1.7527677,1.744874 l -1.7527677,0.0079 z"
         sodipodi:start="0"
         sodipodi:end="6.2786715"
         transform="matrix(0.38742692,0,0,0.40895064,24.992575,8.3183496)" />
      <path
         sodipodi:type="arc"
         style="opacity:0.8558559;fill:#ffffff;fill-opacity:1;stroke:none"
         id="path15704"
         sodipodi:cx="8.8126183"
         sodipodi:cy="14.900393"
         sodipodi:rx="1.7527859"
         sodipodi:ry="1.7527859"
         d="m 10.565404,14.900393 c 0,0.968036 -0.7847488,1.752785 -1.7527857,1.752785 -0.968037,0 -1.752786,-0.784749 -1.752786,-1.752785 0,-0.968037 0.784749,-1.752786 1.752786,-1.752786 0.9649486,0 1.7484127,0.779935 1.7527677,1.744874 l -1.7527677,0.0079 z"
         sodipodi:start="0"
         sodipodi:end="6.2786715"
         transform="matrix(0.52670314,0,0,0.55596442,31.945948,3.8046638)" />
      <path
         transform="matrix(0.36111113,0,0,0.38117286,52.306179,15.004255)"
         sodipodi:end="6.2786715"
         sodipodi:start="0"
         d="m 10.565404,14.900393 c 0,0.968036 -0.7847488,1.752785 -1.7527857,1.752785 -0.968037,0 -1.752786,-0.784749 -1.752786,-1.752785 0,-0.968037 0.784749,-1.752786 1.752786,-1.752786 0.9649486,0 1.7484127,0.779935 1.7527677,1.744874 l -1.7527677,0.0079 z"
         sodipodi:ry="1.7527859"
         sodipodi:rx="1.7527859"
         sodipodi:cy="14.900393"
         sodipodi:cx="8.8126183"
         id="path15706"
         style="opacity:0.8558559;fill:#ffffff;fill-opacity:1;stroke:none"
         sodipodi:type="arc" />
      <path
         sodipodi:type="arc"
         style="opacity:0.8558559;fill:#ffffff;fill-opacity:1;stroke:none"
         id="path15708"
         sodipodi:cx="8.8126183"
         sodipodi:cy="14.900393"
         sodipodi:rx="1.7527859"
         sodipodi:ry="1.7527859"
         d="m 10.565404,14.900393 c 0,0.968036 -0.7847488,1.752785 -1.7527857,1.752785 -0.968037,0 -1.752786,-0.784749 -1.752786,-1.752785 0,-0.968037 0.784749,-1.752786 1.752786,-1.752786 0.9649486,0 1.7484127,0.779935 1.7527677,1.744874 l -1.7527677,0.0079 z"
         sodipodi:start="0"
         sodipodi:end="6.2786715"
         transform="matrix(0.2032164,0,0,0.2145062,34.673049,8.482118)" />
      <path
         transform="matrix(0.38742692,0,0,0.40895064,1.2679656,12.318168)"
         sodipodi:end="6.2786715"
         sodipodi:start="0"
         d="m 10.565404,14.900393 c 0,0.968036 -0.7847488,1.752785 -1.7527857,1.752785 -0.968037,0 -1.752786,-0.784749 -1.752786,-1.752785 0,-0.968037 0.784749,-1.752786 1.752786,-1.752786 0.9649486,0 1.7484127,0.779935 1.7527677,1.744874 l -1.7527677,0.0079 z"
         sodipodi:ry="1.7527859"
         sodipodi:rx="1.7527859"
         sodipodi:cy="14.900393"
         sodipodi:cx="8.8126183"
         id="path15710"
         style="fill:#ffffff;fill-opacity:1;stroke:none"
         sodipodi:type="arc" />
      <path
         transform="matrix(0.60113543,0,0,0.63453183,53.056346,5.2980918)"
         sodipodi:end="6.2786715"
         sodipodi:start="0"
         d="m 10.565404,14.900393 c 0,0.968036 -0.7847488,1.752785 -1.7527857,1.752785 -0.968037,0 -1.752786,-0.784749 -1.752786,-1.752785 0,-0.968037 0.784749,-1.752786 1.752786,-1.752786 0.9649486,0 1.7484127,0.779935 1.7527677,1.744874 l -1.7527677,0.0079 z"
         sodipodi:ry="1.7527859"
         sodipodi:rx="1.7527859"
         sodipodi:cy="14.900393"
         sodipodi:cx="8.8126183"
         id="path15712"
         style="opacity:0.8558559;fill:#ffffff;fill-opacity:1;stroke:none"
         sodipodi:type="arc" />
      <path
         sodipodi:type="arc"
         style="fill:#ffffff;fill-opacity:1;stroke:none"
         id="path15714"
         sodipodi:cx="8.8126183"
         sodipodi:cy="14.900393"
         sodipodi:rx="1.7527859"
         sodipodi:ry="1.7527859"
         d="m 10.565404,14.900393 c 0,0.968036 -0.7847488,1.752785 -1.7527857,1.752785 -0.968037,0 -1.752786,-0.784749 -1.752786,-1.752785 0,-0.968037 0.784749,-1.752786 1.752786,-1.752786 0.9649486,0 1.7484127,0.779935 1.7527677,1.744874 l -1.7527677,0.0079 z"
         sodipodi:start="0"
         sodipodi:end="6.2786715"
         transform="matrix(0.36111113,0,0,0.38117286,55.521243,15.286092)" />
      <path
         transform="matrix(0.2032164,0,0,0.2145062,20.517558,10.434105)"
         sodipodi:end="6.2786715"
         sodipodi:start="0"
         d="m 10.565404,14.900393 c 0,0.968036 -0.7847488,1.752785 -1.7527857,1.752785 -0.968037,0 -1.752786,-0.784749 -1.752786,-1.752785 0,-0.968037 0.784749,-1.752786 1.752786,-1.752786 0.9649486,0 1.7484127,0.779935 1.7527677,1.744874 l -1.7527677,0.0079 z"
         sodipodi:ry="1.7527859"
         sodipodi:rx="1.7527859"
         sodipodi:cy="14.900393"
         sodipodi:cx="8.8126183"
         id="path15716"
         style="fill:#ffffff;fill-opacity:1;stroke:none"
         sodipodi:type="arc" />
      <path
         sodipodi:type="arc"
         style="opacity:0.8558559;fill:#ffffff;fill-opacity:1;stroke:none"
         id="path15718"
         sodipodi:cx="8.8126183"
         sodipodi:cy="14.900393"
         sodipodi:rx="1.7527859"
         sodipodi:ry="1.7527859"
         d="m 10.565404,14.900393 c 0,0.968036 -0.7847488,1.752785 -1.7527857,1.752785 -0.968037,0 -1.752786,-0.784749 -1.752786,-1.752785 0,-0.968037 0.784749,-1.752786 1.752786,-1.752786 0.9649486,0 1.7484127,0.779935 1.7527677,1.744874 l -1.7527677,0.0079 z"
         sodipodi:start="0"
         sodipodi:end="6.2786715"
         transform="matrix(0.38742692,0,0,0.40895064,14.174932,14.603766)" />
      <path
         transform="matrix(0.75000001,0,0,0.79166667,7.9087121,2.6518855)"
         sodipodi:end="6.2786715"
         sodipodi:start="0"
         d="m 10.565404,14.900393 c 0,0.968036 -0.7847488,1.752785 -1.7527857,1.752785 -0.968037,0 -1.752786,-0.784749 -1.752786,-1.752785 0,-0.968037 0.784749,-1.752786 1.752786,-1.752786 0.9649486,0 1.7484127,0.779935 1.7527677,1.744874 l -1.7527677,0.0079 z"
         sodipodi:ry="1.7527859"
         sodipodi:rx="1.7527859"
         sodipodi:cy="14.900393"
         sodipodi:cx="8.8126183"
         id="path15720"
         style="fill:#ffffff;fill-opacity:1;stroke:none"
         sodipodi:type="arc" />
      <path
         sodipodi:type="arc"
         style="opacity:0.8558559;fill:#ffffff;fill-opacity:1;stroke:none"
         id="path15722"
         sodipodi:cx="8.8126183"
         sodipodi:cy="14.900393"
         sodipodi:rx="1.7527859"
         sodipodi:ry="1.7527859"
         d="m 10.565404,14.900393 c 0,0.968036 -0.7847488,1.752785 -1.7527857,1.752785 -0.968037,0 -1.752786,-0.784749 -1.752786,-1.752785 0,-0.968037 0.784749,-1.752786 1.752786,-1.752786 0.9649486,0 1.7484127,0.779935 1.7527677,1.744874 l -1.7527677,0.0079 z"
         sodipodi:start="0"
         sodipodi:end="6.2786715"
         transform="matrix(0.36111113,0,0,0.38117286,36.559902,16.144537)" />
      <path
         transform="matrix(0.2032164,0,0,0.2145062,74.099587,18.347366)"
         sodipodi:end="6.2786715"
         sodipodi:start="0"
         d="m 10.565404,14.900393 c 0,0.968036 -0.7847488,1.752785 -1.7527857,1.752785 -0.968037,0 -1.752786,-0.784749 -1.752786,-1.752785 0,-0.968037 0.784749,-1.752786 1.752786,-1.752786 0.9649486,0 1.7484127,0.779935 1.7527677,1.744874 l -1.7527677,0.0079 z"
         sodipodi:ry="1.7527859"
         sodipodi:rx="1.7527859"
         sodipodi:cy="14.900393"
         sodipodi:cx="8.8126183"
         id="path15724"
         style="fill:#ffffff;fill-opacity:1;stroke:none"
         sodipodi:type="arc" />
      <path
         sodipodi:type="arc"
         style="fill:#ffffff;fill-opacity:1;stroke:none"
         id="path15726"
         sodipodi:cx="8.8126183"
         sodipodi:cy="14.900393"
         sodipodi:rx="1.7527859"
         sodipodi:ry="1.7527859"
         d="m 10.565404,14.900393 c 0,0.968036 -0.7847488,1.752785 -1.7527857,1.752785 -0.968037,0 -1.752786,-0.784749 -1.752786,-1.752785 0,-0.968037 0.784749,-1.752786 1.752786,-1.752786 0.9649486,0 1.7484127,0.779935 1.7527677,1.744874 l -1.7527677,0.0079 z"
         sodipodi:start="0"
         sodipodi:end="6.2786715"
         transform="matrix(0.38742692,0,0,0.40895064,17.556963,8.6636164)" />
      <path
         sodipodi:type="arc"
         style="opacity:0.8558559;fill:#ffffff;fill-opacity:1;stroke:none"
         id="path15728"
         sodipodi:cx="8.8126183"
         sodipodi:cy="14.900393"
         sodipodi:rx="1.7527859"
         sodipodi:ry="1.7527859"
         d="m 10.565404,14.900393 c 0,0.968036 -0.7847488,1.752785 -1.7527857,1.752785 -0.968037,0 -1.752786,-0.784749 -1.752786,-1.752785 0,-0.968037 0.784749,-1.752786 1.752786,-1.752786 0.9649486,0 1.7484127,0.779935 1.7527677,1.744874 l -1.7527677,0.0079 z"
         sodipodi:start="0"
         sodipodi:end="6.2786715"
         transform="matrix(0.39644663,0,0,0.41847144,41.151238,11.088502)" />
      <path
         transform="matrix(0.36111113,0,0,0.38117286,1.7149267,7.1634158)"
         sodipodi:end="6.2786715"
         sodipodi:start="0"
         d="m 10.565404,14.900393 c 0,0.968036 -0.7847488,1.752785 -1.7527857,1.752785 -0.968037,0 -1.752786,-0.784749 -1.752786,-1.752785 0,-0.968037 0.784749,-1.752786 1.752786,-1.752786 0.9649486,0 1.7484127,0.779935 1.7527677,1.744874 l -1.7527677,0.0079 z"
         sodipodi:ry="1.7527859"
         sodipodi:rx="1.7527859"
         sodipodi:cy="14.900393"
         sodipodi:cx="8.8126183"
         id="path15730"
         style="opacity:0.8558559;fill:#ffffff;fill-opacity:1;stroke:none"
         sodipodi:type="arc" />
      <path
         transform="matrix(0.38742692,0,0,0.40895064,46.332096,11.880236)"
         sodipodi:end="6.2786715"
         sodipodi:start="0"
         d="m 10.565404,14.900393 c 0,0.968036 -0.7847488,1.752785 -1.7527857,1.752785 -0.968037,0 -1.752786,-0.784749 -1.752786,-1.752785 0,-0.968037 0.784749,-1.752786 1.752786,-1.752786 0.9649486,0 1.7484127,0.779935 1.7527677,1.744874 l -1.7527677,0.0079 z"
         sodipodi:ry="1.7527859"
         sodipodi:rx="1.7527859"
         sodipodi:cy="14.900393"
         sodipodi:cx="8.8126183"
         id="path15732"
         style="opacity:0.8558559;fill:#ffffff;fill-opacity:1;stroke:none"
         sodipodi:type="arc" />
    </g>
    <path
       sodipodi:nodetypes="cccc"
       id="path15846"
       d="m 12.112075,31.63067 c 2.942469,15.578814 26.509685,88.84892 46.591614,89.37613 l -33.17613,0.1813 -13.415484,-89.55743 z"
       style="fill:url(#linearGradient16278);fill-opacity:1;stroke:none" />
    <path
       sodipodi:nodetypes="cc"
       id="path15856"
       d="m 25.138051,121.46676 52.238542,-0.0974"
       style="fill:none;stroke:url(#linearGradient16280);stroke-width:0.93086839px;stroke-linecap:butt;stroke-linejoin:miter;stroke-opacity:1" />
    <path
       sodipodi:nodetypes="ccccc"
       id="path15866"
       d="m 25.628636,121.90145 0.943998,6.16543 c 0.438611,1.20001 48.818437,2.17572 49.321966,0 l 0.815807,-6.43737 -51.081771,0.27194 z"
       style="opacity:0.75518673;fill:url(#linearGradient16282);fill-opacity:1;stroke:none" />
  </g>
</svg>
