<svg xmlns="http://www.w3.org/2000/svg" xml:space="preserve" width="297" height="309">
   <!-- Bottle dark outline -->
   <path fill="#014463" d="m7.636 61.59 54.55-54.55c1.37-1.36 2.73-2.04 4.77-2.04h33.42c10.9 0 21.811 4.09 29.311 12.27 2.729 2.73 4.779 6.14 6.819 9.55l65.45 117.95 21.82 21.14c4.78 4.77 6.82 12.27 4.09 19.09-.44 1.32-.91 2.61-1.42 3.88-.3-.06-.61-.09-.92-.09-2.79 0-5.07 2.28-5.07 5.07 0 1.52.67 2.89 1.74 3.81a64.88 64.88 0 0 1-5.57 8.19 5.11 5.11 0 0 0-2.46-.63c-2.8 0-5.07 2.27-5.07 5.06 0 1.04.31 2 .84 2.81-2.55 2.4-5.24 4.57-8.09 6.511a5.01 5.01 0 0 0-3.59-1.5c-2.8 0-5.07 2.279-5.07 5.069 0 .46.06.91.19 1.34a69.794 69.794 0 0 1-8.46 3.44c-2.05.67-4.09.67-6.14.67-4.77 0-9.54-2.04-12.95-5.45l-21.82-21.819-117.949-65.45c-3.41-2.05-6.82-4.09-9.551-6.82-8.18-8.18-12.27-18.41-12.27-29.32V66.36c1.36-2.04 2.04-3.41 3.4-4.77zm168.41 152.04c1.37 1.37 3.41 1.37 4.78 1.37 8.18-2.73 15-7.5 21.13-12.96 6.14-6.13 10.23-12.95 12.96-21.13.68-1.37 0-3.41-1.37-4.78l-17.72-17.72-38.19 38.18zM19.236 99.77c0 7.5 2.729 14.32 8.18 19.77 2.04 2.05 4.09 3.41 6.13 4.78l113.87 63.41 40.23-40.23-63.41-113.87c-1.37-2.04-2.73-4.08-4.771-6.13-4.779-6.14-11.6-8.86-19.09-8.86H69.686l-50.45 50.45z"/>
   <!-- Bottle cap - bright part -->
   <path fill="#b0c4d8" d="M214.234 175.455c1.365 1.364 1.365 3.408 1.365 4.773-2.729 8.184-7.5 15.681-12.957 21.134-6.136 6.139-13.636 10.228-21.134 12.957-1.365.68-3.409 0-4.774-1.364l-17.728-17.725 37.5-37.5z"/>
   <!-- Bottle cap - dark part (must go on top of bright part) -->
   <path fill="#6d90a8" d="m167.189 187.047 17.045 17.045c1.365 1.365 3.409 1.365 4.774 1.365 6.818-2.044 13.636-6.139 19.089-10.913-2.044 2.73-4.091 5.46-6.136 7.504-6.136 6.133-13.636 10.228-21.137 12.951-1.365.686-3.409 0-4.774-1.358l-18.725-17.231z"/>
   <!-- Bottle glass - bright part (1) -->
   <path fill="#c2dbff" d="M147.414 187.726 33.549 124.319c-2.044-1.365-4.088-2.73-6.133-4.774-5.46-5.453-8.183-12.271-8.183-19.772V69.09l50.45-50.454h30.682c7.504 0 14.322 2.727 19.775 8.18 2.045 2.047 3.409 4.091 4.774 6.136l63.408 113.865z"/>
   <!-- Reflection on bottle -->
   <path fill="#fff" d="M114.002 44.544c3.409-2.044 7.504-.682 9.548 2.727l25.229 45.001c2.044 3.409.682 7.5-2.73 9.545-1.365.682-2.044.682-3.409.682-2.724 0-4.774-1.365-6.133-3.409l-25.229-45.001c-2.044-4.092-.686-8.18 2.724-9.545"/>
   <!-- Bottle glass - dark part (1) -->
   <path fill="#b0c4d8" d="M39.687 48.636v30.682c0 7.501 2.73 14.319 8.184 19.772 2.044 2.047 4.088 3.409 6.132 4.774l42.858 23.866H40.376l106.009 59.422-112.836-62.834c-2.044-1.365-4.088-2.727-6.133-4.774-5.453-5.453-8.183-12.271-8.183-19.772V69.09Z"/>
   <!-- Bottle contents - bright part (2) -->
   <path fill="#9fdfff" d="M96.861 127.73h80.555l10.91 19.09-.68.68-40.23 40.23-1.032-.578 1.03.574 20.454-20.455z"/>
   <!-- Bottle glass - bright part (2) -->
   <path fill="#81cdea" d="m167.868 167.271-20.454 20.455-1.03-.574L40.376 127.73h56.485z"/>
   <!-- Bottle bright outline -->
   <path fill="#fff" d="M84.093 14.666c-7.428 0-13.633.494-16.021.713L14.684 69.738c-.073 12.022.723 40.951 5.301 48.584.817 1.358 8.035 8.284 66.595 40.368 27.014 14.801 53.767 28.826 61.062 32.638l43.843-43.377c-25.986-47.898-65.123-118.893-69.302-123.395l-.122-.132-.105-.146c-4.505-6.198-17.951-9.612-37.863-9.612m0-3c14.474 0 33.729 1.821 40.289 10.849 6.034 6.5 70.814 125.985 70.814 125.985l-47 46.5S23.632 130.231 17.414 119.866C11.196 109.501 11.696 68.5 11.696 68.5l55-56s7.604-.834 17.397-.834z"/>
   <!-- Salt grains -->
   <path fill="#8dd9ff" d="M257.869 223.182a6.823 6.823 0 0 0-6.818 6.818 6.823 6.823 0 0 0 6.818 6.818 6.823 6.823 0 0 0 6.818-6.818 6.822 6.822 0 0 0-6.818-6.818M257.869 250.455a6.822 6.822 0 0 0-6.818 6.817 6.822 6.822 0 0 0 6.818 6.818 6.822 6.822 0 0 0 6.818-6.818 6.822 6.822 0 0 0-6.818-6.817M230.596 236.818a6.822 6.822 0 0 0-6.818 6.818 6.822 6.822 0 0 0 6.818 6.818 6.823 6.823 0 0 0 6.818-6.818 6.821 6.821 0 0 0-6.818-6.818M210.142 230a6.823 6.823 0 0 0-6.818 6.818 6.823 6.823 0 0 0 6.818 6.818 6.823 6.823 0 0 0 6.818-6.818 6.823 6.823 0 0 0-6.818-6.818M230.596 209.545a6.823 6.823 0 0 0-6.818 6.818 6.822 6.822 0 0 0 6.818 6.818 6.822 6.822 0 0 0 6.818-6.818 6.822 6.822 0 0 0-6.818-6.818M210.142 257.272a6.823 6.823 0 0 0-6.818 6.818 6.823 6.823 0 0 0 6.818 6.818 6.823 6.823 0 0 0 6.818-6.818 6.823 6.823 0 0 0-6.818-6.818M237.415 264.091a6.823 6.823 0 0 0-6.818 6.818 6.824 6.824 0 0 0 6.818 6.818 6.824 6.824 0 0 0 6.818-6.818 6.824 6.824 0 0 0-6.818-6.818M285.142 243.637a6.822 6.822 0 0 0-6.818 6.818 6.822 6.822 0 0 0 6.818 6.817 6.822 6.822 0 0 0 6.818-6.817 6.822 6.822 0 0 0-6.818-6.818M230.596 291.363a6.823 6.823 0 0 0-6.818 6.818 6.825 6.825 0 0 0 6.818 6.819 6.823 6.823 0 0 0 6.818-6.818 6.823 6.823 0 0 0-6.818-6.819M271.506 270.909a6.822 6.822 0 0 0-6.818 6.818 6.822 6.822 0 0 0 6.818 6.817 6.822 6.822 0 0 0 6.818-6.817 6.822 6.822 0 0 0-6.818-6.818"/>
</svg>
