<svg xmlns="http://www.w3.org/2000/svg" xmlns:xlink="http://www.w3.org/1999/xlink" viewBox="0 0 128 160">
  <defs>
    <linearGradient id="colorGradient">
      <stop offset="0" style="stop-color:gray;stop-opacity:1"/>
      <stop offset="1" style="stop-color:#f2f3f4;stop-opacity:1"/>
    </linearGradient>
    <linearGradient xlink:href="#colorGradient" id="mainBodyGradient"    x1="37.1" x2="89.7" y1="64.7"  y2="64.8"  gradientUnits="userSpaceOnUse"/>
    <linearGradient xlink:href="#colorGradient" id="rightLegGradient"    x1="83.9" x2="98.9" y1="111.8" y2="112.1" gradientUnits="userSpaceOnUse"/>
    <linearGradient xlink:href="#colorGradient" id="leftLegGradient"     x1="29.2" x2="44.9" y1="112.4" y2="112.4" gradientUnits="userSpaceOnUse"/>
    <linearGradient xlink:href="#colorGradient" id="leftPillarGradient"  x1="39"   x2="48.5" y1="11.4"  y2="11.6"  gradientUnits="userSpaceOnUse"/>
    <linearGradient xlink:href="#colorGradient" id="rightPillarGradient" x1="80.1" x2="87.4" y1="9.6"   y2="9.8"   gradientUnits="userSpaceOnUse"/>
  </defs>
  <path id="mainOutline"
        d="M105 30a7 7 0 0 0-6.7 5H96v-4.8a16.7 16.7 0 0 0-5-11.6V4a2 2 0 0 0-2-2H78a2 2 0 0 0-2 2v6.2a46.5 46.5 0 0 0-24 0V8a2 2 0 0 0-2-2H37a2 2 0 0 0-2 2v13a15.8 15.8 0 0 0-3 9.2 16.3 16.3 0 0 0 0 .5v51.7a13.5 13.5 0 0 0 3.2 8.8l6 6.9-9.8 16.9h-1.2a5.3 5.3 0 0 0-5.4 5.3v.4a5.3 5.3 0 0 0 5.4 5.3h9.3a5.3 5.3 0 0 0 5.3-5.3v-.4a5.3 5.3 0 0 0-2.4-4.4l5.7-9.8 8.3 9.7a10 10 0 0 0 15.2 0l8.3-9.7 5.7 9.8a5.3 5.3 0 0 0-2.4 4.4v.4a5.3 5.3 0 0 0 5.3 5.3h9.3a5.3 5.3 0 0 0 5.4-5.3v-.4a5.3 5.3 0 0 0-5.4-5.3h-1.2l-9.8-16.9 6-7a13.5 13.5 0 0 0 3.2-8.7V39h2.3a7 7 0 1 0 6.7-9ZM80 6h7v9.2a33.7 33.7 0 0 0-7-3.6Zm-32 4v1.6a32 32 0 0 0-9 5.2V10ZM37.8 116a2 2 0 0 0 1.7 3 1.3 1.3 0 0 1 1.3 1.3v.4a1.3 1.3 0 0 1-1.3 1.3h-9.3a1.3 1.3 0 0 1-1.4-1.3v-.4a1.3 1.3 0 0 1 1.4-1.3h2.4a2 2 0 0 0 1.7-1l9.6-16.7 1.4 1.6Zm55.9 2a2 2 0 0 0 1.7 1h2.4a1.3 1.3 0 0 1 1.4 1.3v.4a1.3 1.3 0 0 1-1.4 1.3h-9.3a1.3 1.3 0 0 1-1.3-1.3v-.4a1.3 1.3 0 0 1 1.3-1.3 2 2 0 0 0 1.7-3l-7.5-13 1.4-1.7ZM92 82.4a9.5 9.5 0 0 1-2.3 6.2l-6.8 8-4.2 4.8-10.1 11.8a6 6 0 0 1-9.2 0l-10.1-11.8-4.2-4.8-6.8-8a9.5 9.5 0 0 1-2.3-6.2V31a2 2 0 0 0 0-.4v-.3a12.1 12.1 0 0 1 2.4-7.1 2 2 0 0 0 .4-.5A25 25 0 0 1 50.4 15a2 2 0 0 0 .4-.2 43 43 0 0 1 26.4 0 2 2 0 0 0 .4.2 27.3 27.3 0 0 1 9.7 5.6 2 2 0 0 0 .6.6 13 13 0 0 1 4.1 9v.4a2 2 0 0 0 0 .4ZM105 40a3 3 0 1 1 3-3 3 3 0 0 1-3 3Z"
        style="fill:#555555"/>
  <path id="mainBodyFill"
        d="M61.6 114.7c-1.3-.7-1.8-1.1-8.4-8.8L43 93.9a48 48 0 0 1-5.8-7.5l-.8-1.6-.1-27.8c0-20.4 0-28.2.2-29 .5-2.4 1.6-4.3 3.8-6.6 3.1-3 5.5-4.6 10-6.2a39.6 39.6 0 0 1 35.3 4.1c2.2 1.6 3.9 3.5 4.9 5.3 1.5 3 1.4 1.1 1.4 31.8 0 27.6 0 27.7-.5 29-.5 1.8-.9 2.2-6.9 9.2a22625.8 22625.8 0 0 0-17 19.5 5.8 5.8 0 0 1-5.8.6z"
        style="fill:url(#mainBodyGradient);stroke-width:2.04575;stroke-linecap:round;fill-opacity:1"/>
  <path id="circle"
        d="M64 36a17 17 0 0 0-16.8 14.2v.8l-.1.4L47 53a17 17 0 0 0 17 17h1.7l.4-.1 1.3-.2.3-.1 1.3-.4h.3l1.3-.5h.1l1.4-.7 1.4-1a17 17 0 0 0 3.6-3.2l1-1.3.8-1.3.1-.3.6-1.1.2-.4a16.8 16.8 0 0 0 1.1-5v-.5a2 2 0 0 0 0-.2l.1-.7a17 17 0 0 0-17-17Zm0 4a13 13 0 0 1 13 11.8A40.4 40.4 0 0 1 65.5 50l-1-.4A28.8 28.8 0 0 0 55 48a26.2 26.2 0 0 0-3 .2A13 13 0 0 1 64 40ZM51 53v-.6a22.4 22.4 0 0 1 4-.4 25 25 0 0 1 8.3 1.6c.4 0 .7.2 1.1.3a44.2 44.2 0 0 0 12.3 1.9 13 13 0 0 1-1.3 3.4l-.6 1a13.1 13.1 0 0 1-4.6 4.2l-1 .5-.3.1-.9.4a13 13 0 0 1-1.1.3h-.4l-.9.2h-.3L64 66a13 13 0 0 1-13-13ZM54 73H43a2 2 0 0 0-2 2v11a2 2 0 0 0 2 2h11a2 2 0 0 0 2-2V75a2 2 0 0 0-2-2Zm-2 11h-7v-7h7Z"
        style="fill:#757575"/>
  <path id="leftPillarFill"
        d="M39.2 13.3v-3.1h8.6v.7c0 .5 0 .8-.2.8-.5 0-4.5 2-6.4 3.3l-2 1.4z" style="fill:url(#leftPillarGradient);stroke-width:2.04575;stroke-linecap:round;fill-opacity:1"/>
  <path id="rightPillarFill"
        d="M85.9 14.4c-1-.7-5.1-2.7-5.5-2.7-.2 0-.3-.7-.3-2.8V6H86.8v8.8l-1-.5z" style="fill:url(#rightPillarGradient);stroke-width:2.04575;stroke-linecap:round;fill-opacity:1"/>
  <path id="leftLegFill"
        d="M29.3 121.6c-.5-.4-.5-1.8 0-2.2.3-.2 1-.3 2.2-.3 1.6 0 1.9 0 2.4-.5l5.2-8.7 4.8-8.3.7.6.6.7-3.9 6.8a40 40 0 0 0-3.8 7.4c0 1 1 2 1.9 2 .7 0 1.3.6 1.3 1.4 0 1.3-.2 1.4-5.9 1.4-4 0-5.1 0-5.5-.3z"
        style="fill:url(#leftLegGradient);stroke-width:2.04575;stroke-linecap:round;fill-opacity:1"/>
  <path id="rightLegFill"
        d="M87.6 121.4c-.7-1-.1-2.3 1-2.3.4 0 .9-.3 1.3-.7 1-1 .9-1.5-1.7-6-5.4-9.5-5.3-9.3-5.1-9.7l.6-.8c.4-.3.6 0 5.3 8.1a54 54 0 0 0 5.4 8.8 6 6 0 0 0 2.3.3c1.3 0 1.7 0 2 .4.5.5.6 1.3.1 2-.3.4-.4.4-5.6.4-5.2 0-5.3 0-5.6-.5z"
        style="fill:url(#rightLegGradient);stroke-width:2.04575;stroke-linecap:round;fill-opacity:1"/>
</svg>
