<svg xmlns="http://www.w3.org/2000/svg" width="858" height="743">
  <path fill="#462D01" d="M623 47h9a604 604 0 0 0 5 0c14-1 28-1 39 9 8 8 10 17 10 28v8h3a1232 1232 0 0 1 16 0 522 522 0 0 1 7 0h2c4 0 6 0 9 2 2 2 4 4 4 7v8h3c79-3 79-3 94 10 11 11 14 26 14 41v7a4438 4438 0 0 1 0 19v15a19318 19318 0 0 1 0 53v11a88084 88084 0 0 1 0 121 83037 83037 0 0 1 0 71v4a23860 23860 0 0 0 0 81 1135 1135 0 0 0 0 5c0 18-1 34-14 48-10 9-21 14-34 14h-7v4a1974 1974 0 0 1 0 29v3c0 5 0 9-4 13-5 3-10 4-15 4h-5l-3-1-19-2v47l6-1c12-1 24-1 33 7 2 5 2 9 0 14-2 4-4 4-8 6h-20a1753 1753 0 0 1-57-4 19923 19923 0 0 1-21-1 38135 38135 0 0 0-30-2 97303 97303 0 0 1-50-3 128181 128181 0 0 0-47-3h-3l-15-1-120-8a390774 390774 0 0 0-48-3l-28-2-20-1a47649 47649 0 0 1-99-6l-17-2h-3a11426 11426 0 0 0-63-4h-3l-33-2a9593 9593 0 0 1-12-1 2586 2586 0 0 0-5 0l-26-2h-4c-4-1-7-3-10-6-1-4-2-8-1-12 2-3 3-5 7-6l11-1h2l13 1 1-46H48c-25 0-25 0-33-5-6-6-5-13-5-20v-4a1117 1117 0 0 1 0-24v-3c0-7 0-12 5-17 5-4 9-3 15-2v-3a15690 15690 0 0 1-1-233 41958 41958 0 0 1 0-30 20853 20853 0 0 0 0-34v-6a2871 2871 0 0 1 0-8v-3c0-14 0-14 4-18l1-1c7-6 15-8 23-11a2370 2370 0 0 0 7-3 9591 9591 0 0 1 15-5l19-7 2-1 38-15c13-5 25-9 40-9h4l67 2 14 1h7l44 2a290946941 290946941 0 0 0 4 0l22 1a55814 55814 0 0 1 47 2h14a14556 14556 0 0 1 35 2h7l6 1v-3c-1-15 2-29 13-41 13-12 27-13 44-13h5l32 1v-2c-1-8-1-8 2-11 6-6 11-6 19-6h2a209 209 0 0 1 19 1v-4c-1-12 1-21 9-31 8-8 18-10 29-10zM450 523v2l-2 1c-4 1-7 4-10 6l-21 15-15 12v1l50 2v-39h-2zm-314 99v47l62 4a17263196 17263196 0 0 1 19 1l47 3a337591 337591 0 0 0 53 3l3 1a65232 65232 0 0 0 229 14h3a44928 44928 0 0 1 92 6h23v-46l-12-2h-11l-7-1-18-1-16-1-66-4h-3l-148-9-135-9h-2l-86-6h-27z"/>
  <path fill="#FEE5B2" d="M494 136h22a10047 10047 0 0 0 27 0v16c1 11 1 11 5 20 4 3 7 2 12 2h35a20119 20119 0 0 0 105 0 527 527 0 0 1 5 0h10c4 0 6-1 9-4 4-7 3-15 4-23v-11a5235 5235 0 0 1 28 0 2324 2324 0 0 0 25 0 531 531 0 0 0 5 0h11c5 0 9 4 13 8 2 4 2 8 2 12v44a18407 18407 0 0 1 0 53v11a89391 89391 0 0 1 0 280 771 771 0 0 0 0 5c0 20 0 20-5 27-9 7-19 7-30 7h-3a1411 1411 0 0 1-131-4 24130 24130 0 0 1-27-1l-33-2-30-2-8-1a6059 6059 0 0 1-10 0 1222 1222 0 0 0-32-2 568 568 0 0 0-5 0 558 558 0 0 1-7 0h-4c-4-1-6-2-9-5-2-4-2-8-2-12v-9a5252 5252 0 0 0 0-5v-30a18373 18373 0 0 1 0-122v-67a41340 41340 0 0 1 0-62v-34a9048 9048 0 0 1 0-29 2996 2996 0 0 0 0-29 579 579 0 0 0-1-5 494 494 0 0 1 1-7v-4c0-6 5-10 10-14l8-1z"/>
  <path fill="#FEB13A" d="M54 226c30 0 60 0 90 2h4l11 2v2a3066 3066 0 0 0 0 43v6c0 10 2 17 8 24 9 3 16 2 24-1 14-6 26-2 40 4 5 2 10 2 15 0 4-3 7-6 9-11v-19l1-11v-34l68 1h3l31 3a87 87 0 0 1 0 5v11a5294 5294 0 0 1 0 11 8960 8960 0 0 0 0 31 42028 42028 0 0 0 0 30 105867 105867 0 0 1 0 92v135h-17a448 448 0 0 1-29-1h-2a771 771 0 0 1-5 0l-16-1h-2l-5-1h-6l-50-3h-5l-61-4h-3a6906 6906 0 0 0-40-2h-12l-15-1a30617 30617 0 0 1-7 0h-3l-26-3V226z"/>
  <path fill="#D47C00" d="M35 562a667 667 0 0 1 57 2h10l18 2h12l28 2 59 4h3l26 2 25 1a687787 687787 0 0 0 11 1l15 1 97 6a1398911 1398911 0 0 1 45 2l53 4 19 1a199557 199557 0 0 0 83 5 347475 347475 0 0 1 13 1h2l42 2 72 5h3l31 3v31h-27l-10-1-20-1h-6a20245 20245 0 0 0-11-1l-29-2h-3a6442 6442 0 0 1-50-3h-4a36580 36580 0 0 1-203-13 1910 1910 0 0 1-41-2c-14-2-28-2-43-3l-2-1-89-5h-9a3651 3651 0 0 0-6 0l-19-2a385 385 0 0 0-7 0l-2-1a2948 2948 0 0 0-5 0 4434 4434 0 0 1-12 0l-2-1a1403 1403 0 0 1-78-4 574 574 0 0 0-21-2l-25-2v-31z"/>
  <path fill="#C87400" d="M452 197a86899 86899 0 0 1 0 127v2a30968 30968 0 0 0 0 156l1 4-3 11-9 7a1429 1429 0 0 0-5 2l-2 2-10 7-3 1a4682 4682 0 0 0-6 4 10370 10370 0 0 1-15 11 2616 2616 0 0 0-4 2l-6 5-2 1-10 5-1-118v-62a8074 8074 0 0 1 0-46v-28a1607 1607 0 0 1 0-20 587 587 0 0 0 0-11v-12l-1-4 2-9 12-7a968 968 0 0 0 5-2 1297 1297 0 0 1 5-3l38-19 5-2 2-1 7-3z"/>
  <path fill="#452B00" d="m210 325 5 5v14h3c15 0 28 12 38 22 7 8 11 16 15 25l1 3 1 15 1 3c0 7 0 7-3 11l-8 1v4c0 15-4 32-13 44-3 2-4 3-7 3l-5-1-2 3c-5 10-10 18-18 26l-2 2c-4 3-7 5-11 6-7-2-11-6-16-11l-2-1c-6-7-11-15-15-24h-7c-4 0-6-2-8-5-8-12-12-28-12-42v-6h-3l-6-3c-3-7-2-17 1-24 4-11 9-20 17-29l2-2c8-9 21-20 34-20a193524098 193524098 0 0 1 6 0v-10c0-3 1-5 3-8 4-2 7-2 11-1z"/>
  <path fill="#EA8A00" d="M626 73h3a428 428 0 0 1 5 0 378 378 0 0 0 13 0h2c4 0 6 1 9 3 4 4 5 7 6 12v2a453 453 0 0 1 1 6c0 6 1 9 6 13 6 3 14 2 21 3h11l3 1v11a2096 2096 0 0 1 0 20v3c0 6 0 6-2 8h-13a2576 2576 0 0 1-15 0h-11a9287 9287 0 0 1-19 0 7438 7438 0 0 0-41 0 4426 4426 0 0 0-12 0 2111 2111 0 0 1-16 0h-7l-4-2a125 125 0 0 1 0-9v-3a1306 1306 0 0 1 0-14v-8l1-7h10a647 647 0 0 1 7 0c8 0 13-1 19-6 4-5 4-9 4-15 1-6 1-9 5-13 5-4 8-5 14-5z"/>
  <path fill="#452B00" d="M598 201c5 1 8 3 11 7 1 8-2 12-6 18l-3 3c-7 6-9 12-9 22a514 514 0 0 0 0 18 689 689 0 0 1 1 22c0 9 0 9-3 12-5 5-11 7-18 7h-12a1863 1863 0 0 1-8 0 1290 1290 0 0 0-25 0h-7c-5 0-8-2-11-5-2-4-3-6-3-10v-15a1450 1450 0 0 1 0-34 517 517 0 0 0 0-5v-10c1-5 3-7 6-10l8-1h6l9-1a2212 2212 0 0 1 16 0h11a343 343 0 0 1 4 0c9 0 9 0 17-3l2-3 2-3 2-2c5-7 5-7 10-7z"/>
  <path fill="#442B00" d="M602 453c3 2 6 4 6 8 1 7-2 11-6 16l-6 6c-3 4-4 7-5 12a311 311 0 0 0 0 7v6a805 805 0 0 0 0 23 594 594 0 0 0 0 8v6c0 5-2 7-6 10-3 3-6 3-11 3h-10a3480 3480 0 0 1-32 1 345 345 0 0 0-4 0c-7 0-13 0-20-4-3-5-3-10-3-15v-2a843 843 0 0 1 0-7v-4a2317 2317 0 0 1 0-10 1277 1277 0 0 0-1-12v-10a417 417 0 0 0 0-5 347 347 0 0 1 0-6v-4c1-5 4-7 8-10l8-1h6a775 775 0 0 0 6 0 3268 3268 0 0 1 29-1 492 492 0 0 1 4 0h9c4 0 8-2 11-5l1-3c4-6 8-8 16-7z"/>
  <path fill="#452B00" d="m596 328 7 1c4 3 5 6 5 11 0 8-6 14-12 20-3 3-4 5-4 10v15a4000 4000 0 0 0 0 12l-1 12v4c0 7 0 13-5 18-4 3-6 3-10 3h-11a3963 3963 0 0 1-34 1 397 397 0 0 0-5 0c-13 0-13 0-17-3-4-5-4-9-4-15v-2a781 781 0 0 1 0-7v-2a2189 2189 0 0 1-1-12v-12a764 764 0 0 1 0-10 289 289 0 0 0 0-4c0-14 0-14 4-19 3-3 5-4 9-4h10a8847 8847 0 0 0 19 0c20 1 20 1 39-5l6-9 5-3zm41-105h10a2251 2251 0 0 1 102 0h4c7 0 13 0 19 5 3 4 3 8 2 13l-7 7h-35a12309 12309 0 0 1-94 1c-10 0-10 0-14-3-3-4-3-7-3-12s2-6 5-9c4-2 7-2 11-2z"/>
  <path fill="#472D00" d="M636 350h11a4261 4261 0 0 1 11 0 7315 7315 0 0 0 27 0 7794 7794 0 0 0 24 0 5627 5627 0 0 1 19 0 2261 2261 0 0 0 23 0h4c10 0 10 0 15 3 4 4 4 8 3 13l-2 6c-4 3-6 3-10 3h-51a8187 8187 0 0 0-24 0 5703 5703 0 0 1-47 0h-6c-5 0-7-2-10-5-2-4-3-6-2-10l7-9 8-1zm-1 126h50a6322 6322 0 0 0 24 0 4285 4285 0 0 1 42 0l4-1c6 1 11 1 17 5 3 4 3 9 2 14l-8 7h-17a2416 2416 0 0 1-105 0l-4 1c-6-1-10-1-15-5l-2-2c-2-3-2-7-1-11 3-6 7-8 13-8z"/>
  <path fill="#CF7900" d="M178 230h20l39 2v64c-12-2-12-2-17-5-10-4-19-2-29 1-5 2-8 2-13 2v-64z"/>
  <path fill="#FEB13D" d="M352 184h3a945 945 0 0 1 42 1h6l3 1 21 1-3 4-3 2-4 1a18542 18542 0 0 1-4 2 2655 2655 0 0 0-4 2 2407 2407 0 0 1-8 3l-15 7a3980 3980 0 0 1-8 3l-3 2-3 1-4 2-10 1h-14l-69-3 3-4 3-2 4-1 2-1 9-4 4-2 12-5c13-7 26-11 40-11z"/>
  <path fill="#402700" d="M638 398h4a581 581 0 0 1 50 0 3220 3220 0 0 1 32 1h3c5 0 8 0 12 3 3 4 4 7 3 12 0 4-2 5-5 8l-6 1h-23a10286 10286 0 0 1-69 0l-3 1c-5-1-9-1-13-5-2-3-3-6-2-10 2-9 9-11 17-11z"/>
  <path fill="#412800" d="M633 523h22a9478 9478 0 0 1 18 0 4063 4063 0 0 0 19 0 2990 2990 0 0 1 31 0l3-1 10 3c3 3 4 5 5 10l-5 10c-4 2-8 2-12 2h-14a3386 3386 0 0 0-7 0h-34a2623 2623 0 0 1-14 0 1585 1585 0 0 0-7 0h-13l-10-3c-3-5-3-9-2-15 3-5 5-6 10-6zm-1-249h25a9749 9749 0 0 1 63 0h3c5 0 8 0 12 3 3 3 2 7 2 11-3 7-3 7-6 9h-26a9088 9088 0 0 1-51 1 922 922 0 0 0-7 0h-13c-4 0-6 0-10-3-3-4-3-7-3-12 0-4 2-5 5-8l6-1z"/>
  <path fill="#FDB03B" d="M185 177a206 206 0 0 0 21 1h15l2 1 13 1c-4 4-7 6-13 8l-2 1a1026 1026 0 0 1-7 3 4101 4101 0 0 0-5 2l-13 5-9 4c-12 4-20 7-32 7h-2l-37-1h-2a952 952 0 0 1-7 0h-3l-8-3 11-5 4-1 2-1 31-11 3-1a719 719 0 0 0 12-5c9-4 16-6 26-5z"/>
  <path fill="#EF8E00" d="M525 490h38c-7 14-7 14-13 19l-7-4c-4-3-6-2-11-2-2 4-1 9 0 13 4 6 9 11 15 14 4 1 7 0 10-2 5-3 8-7 11-11l1-2h2v23l-45-1-1-47z"/>
  <path fill="#F08D00" d="M532 365h10l22 1-3 6-1 3c-3 4-4 7-8 9h-5l-2-2c-4-2-6-4-11-4l-4 4c0 7 1 11 6 16 4 4 8 7 15 9 5-1 7-4 11-8l2-2a411 411 0 0 0 4-4l3-2v23a3812 3812 0 0 1-12 0h-3l-30-1v-20a4315 4315 0 0 0 0-7v-18c0-4 3-3 6-3z"/>
  <path fill="#DA7F00" d="M689 656h18l3 1 4 1v46h-12l-4-1h-6l-3-1a65 65 0 0 1 0-4v-42z"/>
  <path fill="#F08E00" d="M532 240h5l27 1-11 18-9-4c-4-2-7-2-11-2-2 4-2 7-1 11 3 7 9 13 15 16 4 1 7 1 11-1l11-12 1-2h1v23h-45a12493 12493 0 0 1 0-20 4315 4315 0 0 0 0-7v-18c0-4 3-3 6-3z"/>
  <path fill="#CF7800" d="m90 619 24 1v47l-24-2v-46z"/>
  <path fill="#CE7700" d="M289 182h2l12 1c-2 3-3 4-6 5l-3 1-3 1-32 15c-10 4-19 8-30 7h-3l-17-1 10-7 3-1 4-2a3409 3409 0 0 0 6-2 2358 2358 0 0 1 4-2l13-5c13-7 26-10 40-10z"/>
  <path fill="#E18300" d="M204 390c4 1 4 2 6 5 3 6 6 10 10 14l2 4c-3 9-7 17-15 23h-6c-7-5-12-15-14-23 0-5 1-6 4-9a1400 1400 0 0 1 13-14z"/>
  <path fill="#E68700" d="M196 363c-1 13-7 22-16 30-7 5-17 10-26 10 1-13 8-23 18-31 7-6 15-10 24-9z"/>
  <path fill="#E38600" d="M215 363c11 2 23 7 30 17l4 8 2 2c2 5 2 9 2 14a42 42 0 0 1-38-41z"/>
  <path fill="#E08300" d="M210 456c3 0 4 2 7 4l2 2 2 2c-2 9-6 17-12 24h-2v2c-4 0-6-1-9-4-10-14-10-14-11-20 0-3 0-4 3-6 4-3 6-3 11-4h9z"/>
  <path fill="#442B00" d="m640 86 8 7c1 7 0 11-4 17-3 2-6 3-10 3s-7-4-10-7c-2-3-2-6-1-10 4-8 8-11 17-10z"/>
  <path fill="#E48500" d="M170 419c3 1 3 3 4 5l2 3 1 2a1579 1579 0 0 0 3 5l1 3 3 4 1 4-5 4-3 2c-3 2-5 3-8 3-5-10-8-20-7-32 5-3 5-3 8-3z"/>
  <path fill="#E48600" d="m237 421 9 2c1 10-2 22-7 31l-10-5-3-2-2-2 4-9 9-15z"/>
  <path fill="#FFBF60" d="M98 204h9l1 3H96l2-3z"/>
  <path fill="#352000" d="M199 326h4l-2 4-3 1 1-5z"/>
</svg>
