<svg xmlns="http://www.w3.org/2000/svg" width="512" height="512">
  <!-- Steam -->
  <path fill="#ff9303"
    fill-rule="evenodd"
    d="M120.2 10c-16.6 8.5-10.7 41.8 11.8 65.5 17.6 18.6 17.2 35.3-1.3 55.3a66 66 0 0 0-19.7 46c0 26 31.7 27 34.6 1.1 1.2-10.8 3.7-16 12.7-25.8 28.3-30.8 28.8-68.1 1.2-98-9.6-10.4-12.4-15.8-13.7-26.1-2.2-16.3-13.4-24.2-25.6-18m86.3-.1c-18.4 8.5-12.6 40.9 12.2 67.4 16 17.1 15.2 34-2.6 53.2-23.5 25.4-27.2 60-6.9 65.6 11.4 3 20-4.3 21.8-18.6a40.1 40.1 0 0 1 12.8-25.6C272 122 272 82.6 244 53c-8.8-9.3-11.9-15.3-13-25.1-1.8-16.1-12.2-23.7-24.6-18m85 0c-17 7.7-12.1 40.6 9.4 63.5 17.8 18.8 19 38.5 3.4 54.1-27.8 27.9-31.3 69-5.8 68.9 10.4 0 16.1-6 17.6-18.1a40.4 40.4 0 0 1 12.3-25.3c28.7-30.5 29.3-69.2 1.5-99.5-8.8-9.5-12.4-16-13.4-24-1.2-10-1.6-11.5-4.2-14.6a17.3 17.3 0 0 0-20.9-5m84.8.2c-16.6 8.4-10.7 41.7 11.8 65.4 17.6 18.6 17.2 35.3-1.3 55.3a66 66 0 0 0-19.7 46c0 26 31.7 27 34.6 1.1 1.2-10.8 3.7-16 12.7-25.8 28.3-30.8 28.8-68.1 1.2-98-9.6-10.4-12.4-15.8-13.7-26.1-2.2-16.3-13.4-24.2-25.6-18"/>
  <!-- Pan -->
  <path fill="#2b1901"
    fill-rule="evenodd"
    d="M18.5 197.4a17.8 17.8 0 0 0-9 22.2c3.6 8.7 8.9 11.3 22.8 11.4H42v87.3c0 86.7.4 95.5 3.6 108.6a102.6 102.6 0 0 0 84.3 75.6c14.7 2.3 239.3 2.2 253 0 46-7.5 80.8-43.9 86-90 .7-5.4 1-43.2 1-95.3l.1-86.2h9.8c21 0 31.6-15.4 19.9-28.7-9.4-10.8-56.3-9.3-62.4 2-1.7 3-1.8 10.4-2.3 106.7l-.5 103.5-2.8 8a69.1 69.1 0 0 1-42.9 43.1l-8.3 2.9h-249l-8-2.8a69.3 69.3 0 0 1-43.2-43.2l-2.8-8L77 311c-.6-117.4.2-107.9-9-112.7-5.2-2.8-43.6-3.5-49.5-1"/>
  <!-- Liquid -->
  <path fill="#995a05"
    fill-rule="evenodd"
    d="m77.2 318 .3 96.5 2.8 8a69.3 69.3 0 0 0 43.1 43.2l8.1 2.8h249l8.3-2.9a69.1 69.1 0 0 0 42.9-43.1l2.8-8 .3-96.6.2-96.5-8 .8c-13.6 1.3-20.3 4.3-37.8 17.2-30.3 22.2-57 22.1-87.2-.2-32.7-24-58.2-24.3-91-.7-32.9 23.6-56.8 23.5-90-.4-16.6-12-22.5-14.6-36.2-16l-7.8-.7.2 96.5m59.8-26.4c-6.2 2-11.4 6.6-14.5 13-12.6 25.6 20 49.3 40.2 29.1a25.2 25.2 0 0 0-25.7-42m176.5 9.8a25.2 25.2 0 0 0-1.7 44.9 25.3 25.3 0 0 0 34.5-34.5 24.9 24.9 0 0 0-32.8-10.4m-91 16.4c-13.3 8.6-11.5 26.8 3.2 31.2 18.2 5.5 29.5-18.9 14-30.3-3.9-3-13.2-3.4-17.2-.9m146 50.6A17.8 17.8 0 0 0 359 388c5.2 19.2 33.2 15.8 33.2-4 0-12-12.9-20.6-23.8-15.6m-239.8 17.9c-7 4-10.2 11-8.6 18.4 4 17.3 28.3 17.6 33 .3 3.7-13.9-11.9-25.9-24.4-18.7m146.4-1.4c-28.5 9.2-23.2 49.5 6.5 49.6a25.1 25.1 0 0 0 10.9-48c-4.3-2-13.5-2.9-17.4-1.6"/>
  <!-- Bubbles -->
  <path fill="#fbb049"
    fill-rule="evenodd"
    d="M137 291.5c-6.2 2-11.4 6.6-14.5 13-12.6 25.6 20 49.3 40.2 29.1a25.2 25.2 0 0 0-25.7-42m176.5 9.8a25.2 25.2 0 0 0-1.7 44.9 25.3 25.3 0 0 0 34.5-34.5 24.9 24.9 0 0 0-32.8-10.4m-91 16.4c-13.3 8.6-11.5 26.8 3.2 31.2 18.2 5.5 29.5-18.9 14-30.3-3.9-3-13.2-3.4-17.2-.9m146 50.6A17.8 17.8 0 0 0 359 388c5.2 19.2 33.2 15.8 33.2-4 0-12-12.9-20.6-23.8-15.6m-239.8 17.9c-7 4-10.2 11-8.6 18.4 4 17.3 28.3 17.6 33 .3 3.7-13.9-11.9-25.9-24.4-18.7m146.4-1.4c-28.5 9.2-23.2 49.5 6.5 49.6a25.1 25.1 0 0 0 10.9-48c-4.3-2-13.5-2.9-17.4-1.6"/>
</svg>
