<svg xmlns="http://www.w3.org/2000/svg" width="440.26" height="458.99" style="clip-rule:evenodd;fill-rule:evenodd;image-rendering:optimizeQuality;shape-rendering:geometricPrecision;text-rendering:geometricPrecision">
  <!--Beer foam: main-->
  <path fill="#e6e6e0" d="M367.5 135.5q-50.5-.25-101 .5-7.25 3.25-10.5 10.5a115 115 0 0 1-3.5 21q-17 30.49-51 21.5-15.69-6.44-23-21.5a89 89 0 0 1-3.5-21q-8.26-15.63-24.5-8.5-4.4 3.4-6.5 8.5-.75 10.49-.5 21v31q-12.08 25.28-38 13.5-5.39-4.38-8.5-10.5a657 657 0 0 1-1.5-50.5A692 692 0 0 1 97 99.5q8.15-27.65 34.5-39.5l20-6a308 308 0 0 0 25-16q19.49-11.7 42-8a129 129 0 0 0 29 5.5 115 115 0 0 0 31-6.5q14.38-2.12 27 5 20.65 21.33 50 27 33.3 16.85 21.5 52.5a333 333 0 0 1-9.5 22" style="opacity:1" transform="translate(-23.24 -28.51)"/>
  <!--Beer foam: bubbles-->
  <path fill="aaaaa9" d="M188.5 63.5q11.52-1.22 10.5 10-1.47 6.19-8 6-8.98-1.86-7-11 1.54-3.28 4.5-5m96 0q11.52-1.22 10.5 10-1.47 6.19-8 6-8.98-1.86-7-11 1.54-3.28 4.5-5m-152 24q11.52-1.22 10.5 10-1.47 6.19-8 6-8.98-1.86-7-11 1.54-3.28 4.5-5m104 0q11.52-1.22 10.5 10-1.47 6.19-8 6-8.98-1.86-7-11 1.54-3.28 4.5-5m-32 16q11.52-1.22 10.5 10-1.47 6.19-8 6-8.98-1.86-7-11 1.54-3.28 4.5-5" style="opacity:1" transform="translate(-23.24 -28.51)"/>
  <!--Rim of glass: left-->
  <path fill="#f9c864" d="M178.5 167.5h-35q-.25-10.51.5-21 2.1-5.1 6.5-8.5 16.24-7.13 24.5 8.5a89 89 0 0 0 3.5 21" style="opacity:1" transform="translate(-23.24 -28.51)"/>
  <!--Rim of glass: right-->
  <path fill="#f9c864" d="M367.5 135.5v32h-115a115 115 0 0 0 3.5-21q3.25-7.25 10.5-10.5 50.5-.75 101-.5" style="opacity:1" transform="translate(-23.24 -28.51)"/>
  <!--Main body of glass-->
  <path fill="#e6a72b" d="M143.5 167.5h35q7.31 15.06 23 21.5 34 8.99 51-21.5h115v272h-224z" style="opacity:1" transform="translate(-23.24 -28.51)"/>
  <!--Handle: top attachment-->
  <path fill="#a7a8a7" d="M367.5 167.5h24v48h-24z" style="opacity:1" transform="translate(-23.24 -28.51)"/>
  <!--Handle: main-->
  <path fill="#e1e0da" d="M391.5 167.5q56.47-5.23 71.5 49 1 79 0 158-15.07 54.28-71.5 49v-48q16 .38 22.5-14a1147 1147 0 0 0 1.5-66q.2-33.05-1.5-66-6.5-14.38-22.5-14z" style="opacity:1" transform="translate(-23.24 -28.51)"/>
  <!--Handle: bottom attachment-->
  <path fill="#a7a8a7" d="M367.5 375.5h24v48h-24z" style="opacity:1" transform="translate(-23.24 -28.51)"/>
  <!--Vertical stripes on glass-->
  <path fill="#d48906" d="M188.5 199.5q13.24-1.02 18.5 11a8460 8460 0 0 1 0 184q-3.14 12.88-16.5 13-11.72-1.47-14.5-13a8277 8277 0 0 1 0-182q2.52-10.27 12.5-13m64 0q13.24-1.02 18.5 11a8460 8460 0 0 1 0 184q-3.14 12.88-16.5 13-11.72-1.47-14.5-13a8277 8277 0 0 1 0-182q2.52-10.27 12.5-13m64 0q13.24-1.02 18.5 11a8460 8460 0 0 1 0 184q-3.14 12.88-16.5 13-11.72-1.47-14.5-13a8277 8277 0 0 1 0-182q2.52-10.27 12.5-13" style="opacity:1" transform="translate(-23.24 -28.51)"/>
  <!--Base of glass-->
  <path fill="#e1e1da" d="M143.5 439.5h224q4.86 11.33 4 24a75 75 0 0 1-3 24h-226q-4.24-17.75-2.5-36 .85-6.44 3.5-12" style="opacity:1" transform="translate(-23.24 -28.51)"/>
  <!--Speech bubble outline-->
  <path d="M174.3.67h-36q-99.52 16.27-131.5 112a257 257 0 0 0-5.5 25v36q14 89.76 97 126.5 52.94 18.98 107 3.5a60 60 0 0 1 11.5-5 75 75 0 0 1 11.5 9q38.15 20.9 75-2.5 7.11-8.07 1.5-17.5a69 69 0 0 1-22.5-27 13 13 0 0 1-3.5-10 74 74 0 0 1 10.5-13 158 158 0 0 0 18-47q2-11.68 4-23 3.7-98.35-80-148.5a184 184 0 0 0-57-18.5m-17 22q-88.35 4.77-124.5 85-27.28 80.6 30.5 142.5 51.64 47.88 121 35a368 368 0 0 0 35.5-11.5q3.45 0 6.5 1.5 19.33 24.1 49 17a94.6 94.6 0 0 1-21-42.5q-.03-3.7 1.5-7 45.4-54.12 28-123-31.35-90.1-126.5-97" style="clip-rule:evenodd;fill:#148263;fill-rule:evenodd;image-rendering:optimizeQuality;shape-rendering:geometricPrecision;text-rendering:geometricPrecision"/>
  <!--Speech bubble fill-->
  <path fill="#e5f1f8" d="M151.5 22.5q102.2 4.47 132.5 102 14.4 65.91-29 117a20 20 0 0 0-1.5 6.5 91.4 91.4 0 0 0 20 43q-28.8 7.23-47-16a38 38 0 0 0-6.5-2.5 215 215 0 0 1-47.5 13.5Q76 292.9 34 206.5 3.8 121.1 67.5 57q36.4-30.89 84-34.5" style="opacity:.5"/>
  <g style="clip-rule:evenodd;fill:maroon;fill-rule:evenodd;image-rendering:optimizeQuality;shape-rendering:geometricPrecision;text-rendering:geometricPrecision" transform="translate(-200.3 -2.59)">
    <!--Top 'o' of %-->
    <path d="M303.5 69.5q41.4 6.24 35.5 48-10.14 30.95-42.5 26.5-31.07-11.35-26.5-44.5 6.75-26.5 33.5-30m0 23q-16.44 7.43-8.5 24 10.46 10.32 20-1 6.96-18.06-11.5-23" style="opacity:1;fill:#148263"/>
    <!--The '/' of %-->
    <path d="M380.5 76.5q19-1.27 14.5 17l-55 131q-8.56 10.36-19 2a15.5 15.5 0 0 1-2-12 6047 6047 0 0 1 57.5-135q2.1-1.53 4-3" style="opacity:1;fill:#148263"/>
    <!--Bottom 'o' of %-->
    <path d="M400.5 164.5q33.44-3.16 42.5 29 4.14 39.28-34.5 46-40.35-7.14-34.5-48 6.54-20.28 26.5-27m4 23q-14.12 10.32-4.5 25 13.1 8.64 20-6 3.35-18.88-15.5-19" style="opacity:1;fill:#148263"/>
  </g>
</svg>
