<svg xmlns="http://www.w3.org/2000/svg" id="iconNewStockPurchase.svg" style="clip-rule:evenodd;fill-rule:evenodd;image-rendering:optimizeQuality;shape-rendering:geometricPrecision;text-rendering:geometricPrecision" version="1.1" viewBox="0 0 426.6 436.5">
  <path id="BackHandleMerged" fill="#0c1f36" d="M178 1a67.3 67.3 0 0 0-36 29 63.9 63.9 0 0 0-27 55v1c-5.8 1-11.8 1.3-18 1a66 66 0 0 1 9.6-46A79.3 79.3 0 0 1 157 1.5c7-.5 14-.7 21-.5zm32 23a99 99 0 0 1 18 52 108.5 108.5 0 0 1-23 2 63.7 63.7 0 0 0-19-50.5 23.9 23.9 0 0 0-9-2.5 14.7 14.7 0 0 0 7-3.5 99.8 99.8 0 0 1 20 0c2.4.2 4.4 1 6 2.5z" style="opacity:1"/>
  <path id="FrontHandle" fill="#122847" d="M266 74c-.2 1.3.2 2.3 1 3a724.9 724.9 0 0 0 7 38 213.8 213.8 0 0 1 4.6 34c-3.8 8.5-10.3 12.1-19.5 11a17.4 17.4 0 0 1-7.5-10 773.5 773.5 0 0 0-3.5-35 293.8 293.8 0 0 0-3-39c-1.7-24-13-41.6-34-53-.6.1-1 .5-1 1a10.6 10.6 0 0 0-6-2.5 99.8 99.8 0 0 0-20 0 14.7 14.7 0 0 1-7 3.5 36 36 0 0 0-18.5 21 107.3 107.3 0 0 0-7.5 37 399 399 0 0 0-1 40 36.6 36.6 0 0 0-1 12c.1 7 0 14-.5 21-4.8 9.3-12.3 12.4-22.5 9.5-5.8-4.8-7.6-11-5.5-18.5.5-5.4 1.3-10.8 2.5-16 .6-14 2-28 4-42a4.6 4.6 0 0 0 1-4 148.7 148.7 0 0 1 14-55 67.3 67.3 0 0 1 36-29c37.6-5.1 64.4 9.5 80.5 44a250.3 250.3 0 0 1 7.5 29z" style="opacity:1"/>
  <path id="BagInterior" fill="#01302f" d="M314 75c1.2 1.3.9 2.5-1 3.5l-20 13c-2.6 2.6-2.3 5 1 7a940.4 940.4 0 0 1 36 7.5l-12 2a5025.8 5025.8 0 0 0-44 4v3a724.9 724.9 0 0 1-7-38 785 785 0 0 1 47-2zm-69 1a293.8 293.8 0 0 1 3 39 2244.4 2244.4 0 0 0-83 7c-5 .1-10 .4-15 1a399 399 0 0 1 1-40v4c21.1-1 42.1-2.7 63-5a603.9 603.9 0 0 1 31-2zM127 89c-2 14-3.3 28-4 42v-5c-21.8 1.7-43.6 3.7-65.4 6l-4.5-1 12-9a46.2 46.2 0 0 0 8.5-7c.8-3-.4-4.3-3.5-4a2745.3 2745.3 0 0 1-39-13.5c7.2-1.4 14.6-2.4 22-3a2033.4 2033.4 0 0 0 74-5.5z" style="opacity:1"/>
  <path id="BagSideAndBackEdge" fill="#026742" d="M115 86h12v3a2033.4 2033.4 0 0 1-74 5.5c-7.3.6-14.7 1.6-22 3L70 111a26.4 26.4 0 0 1-10 10c-4.5 3.2-9 6.5-13.4 10-2.7 69.3-5.2 138.7-7.5 208a9 9 0 0 0-5 1.5A389 389 0 0 1 0 365c0-22 .8-44 2.5-66 5.8-68.3 11-136.6 15.5-205 26.5-2.1 52.8-4.4 79-7 6 .3 12 0 18-1zm200-12c-.6 0-1 .3-1 1-15.6.2-31.3.9-47 2a3.1 3.1 0 0 1-1-3c13.2-.4 26.4-1 39.6-2 3.4-.2 6.6.5 9.5 2zm-87 2h17v4a603.9 603.9 0 0 0-31 2 38.7 38.7 0 0 1 5-2.5l-8.4-.5a305.4 305.4 0 0 1-26.5 2 796.3 796.3 0 0 1 21-3c7.8.1 15.5-.5 23-2zm-14 6a1115.9 1115.9 0 0 1-63 5v-4a445.6 445.6 0 0 1 33-2c9-.3 17.8-1 26.6-2l8.5.5a38.7 38.7 0 0 0-5 2.5zm-99 4v-1h13a4.6 4.6 0 0 1-1 4v-3z" style="opacity:1"/>
  <path id="BagPleat" fill="#02583e" d="M39 339c-.7 24-1 48-1 72a6.9 6.9 0 0 1-4.4-3 877.7 877.7 0 0 0-33-38 12.8 12.8 0 0 1-.5-5 391.8 391.8 0 0 0 34-24.5 8.8 8.8 0 0 1 5-1.5z" style="opacity:1"/>
  <path id="FrontEdgeAccent" fill="#037c49" d="M70 111c3.2-.3 4.4 1 3.6 4a46.2 46.2 0 0 1-8.5 7c0-.9-.2-1.5-1-2a6.8 6.8 0 0 1-4 1 26.4 26.4 0 0 0 10-10z" style="opacity:1"/>
  <path id="BagFront" fill="#02914e" d="M248 115a773.5 773.5 0 0 1 3.6 35 17.4 17.4 0 0 0 7.5 10 59.8 59.8 0 0 0-4 6.5 206.5 206.5 0 0 0 7.5 24.5 39.8 39.8 0 0 0 7 8c.3 4.2 2.4 6.7 6.5 7.5 1.7 4 4.7 5.5 9 4.5-49.2 13.7-78.4 45.7-87.5 96a121.8 121.8 0 0 0 24.5 86c-12.8 1.1-25.4 2.5-38 4a51.4 51.4 0 0 0-15 2 1339.9 1339.9 0 0 0-58 6c-5.9.3-11.6 1-17 2l-50 5c-2.2 0-4.2-.3-6-1-.1-24 .2-48 1-72 2.3-69.3 4.8-138.7 7.5-208 4.4-3.5 8.9-6.8 13.5-10a6.8 6.8 0 0 0 4-1c.8.5 1 1.1 1 2l-12 9 4.5 1c21.8-2.3 43.6-4.3 65.5-6v5a132.1 132.1 0 0 0-2.5 16c-2.1 7.5-.3 13.7 5.5 18.5 10.2 3 17.7-.2 22.5-9.5.5-7 .6-14 .5-21a30.8 30.8 0 0 0 1-11c5.2.2 10.2-.5 15-2a2237 2237 0 0 1 83-7zm66-40c0-.7.4-1 1-1 2.3-.4 4 .3 5 2 .1 7.9.8 15.5 2 23a169.1 169.1 0 0 1 22 7c0 5.5.8 10.9 2 16a6423 6423 0 0 1 8 95 361.2 361.2 0 0 1-14-4.5 930.1 930.1 0 0 0-16-2.5 94.7 94.7 0 0 0-34 1h-5c-4.2 1-7.2-.5-9-4.5-4-.8-6.1-3.3-6.4-7.5a39.8 39.8 0 0 1-7-8 206.5 206.5 0 0 1-7.5-24.5 59.8 59.8 0 0 1 4-6.5c9.2 1.1 15.7-2.5 19.5-11a213.8 213.8 0 0 0-4.5-34v-3a5025.8 5025.8 0 0 1 44-4c4.3.2 8.6 0 13-.5 1.2-1.1.8-1.6-1-1.5a940.4 940.4 0 0 0-36-7.5c-3.4-2-3.7-4.4-1-7l20-13c1.8-1 2.1-2.2 1-3.5z" style="opacity:1"/>
  <circle id="AddCircle" cx="311.6" cy="321.5" r="112.5" fill="#1f6fe5" stroke="#244d3c" stroke-width="5"/>
  <path id="PlusHorizontal" stroke="#fff" stroke-linecap="round" stroke-width="30" d="M261.6 321.5h100"/>
  <path id="PlusVertical" stroke="#fff" stroke-linecap="round" stroke-width="30" d="M311.6 271.5v100"/>
</svg>
