<svg xmlns="http://www.w3.org/2000/svg" width="1000" height="1000" style="shape-rendering:geometricPrecision;text-rendering:geometricPrecision;image-rendering:optimizeQuality;fill-rule:evenodd;clip-rule:evenodd">
  <path fill="#0f7008" d="M34 21q227-1 453 1 10 11 1 21l-123 5q13 18 11 42l2 178 23-7q38-3 54 32 4 8 4 18l2 111q-6 40-34 67l-16 11q-22 9-44 14 12 27 8 56-10 72-77 99-77 20-131-36-33-45-25-100 6-10 7-20-62-6-86-62l-6-20q-2-65 1-128 12-44 59-42l21 7 1-4 2-187q3-16 11-29l-6-2q-37-3-75 0l-36-2q-11-2-10-11l1-8z" style="opacity:1"/>
  <path fill="#f2f2f2" d="m373 395 1 14a843 843 0 0 0 0-100q13-35 49-23 9 7 14 19 2 63-1 126-18 63-84 59-7-3-10-9-62-61-140-23-21 12-34 31-72 6-89-63V308q9-30 41-25 17 6 21 25-1 56 3 113 3 7 12 4l3-3q0-171 3-341 10-47 58-36 27 10 29 41l2 169 2 1h10l2-2 2-19 2-162q8-27 35-31 41-3 51 36l-1 58 2 284 4 4h11l1-1z" style="opacity:1"/>
  <path fill="#107109" d="M712 318q101-9 132 87 9 37-5 73l40 12q31 16 43 49l3 3q5 11 6 24 3 57 0 117-3 35-36 45-15 3-28 2l-15-5q-4 96-5 193-2 15-11 28l120 2q9 5 7 15-2 6-8 8-227 1-452-1l-3-3v-17l124-5-11-22-1-199q-47 22-77-20l-6-18-1-101q3-93 95-107-31-88 45-144l23-11z" style="opacity:1"/>
  <path fill="#8eae95" d="M718 337q72-4 102 62 22 72-37 117-70 35-126-18-30-39-20-86 17-63 81-75M244 461q77-4 105 66 18 62-29 105a99 99 0 0 1-108 10 98 98 0 0 1-48-107q17-62 80-74" style="opacity:1"/>
  <path fill="#f2f2f2" d="M613 501q12-1 26 1 27 36 71 45 51 8 92-24l18-20q72-8 89 63v121q-12 29-43 20-18-6-19-23l-4-116q-8-3-14 2l-3 344q-13 47-60 32-19-7-25-27l-2-179-3-5q-7-1-12 2-3 87-4 176-9 41-51 36-28-7-35-34l-3-345q-6-5-12-2l-2 3-3 110q-6 27-34 30-13-4-23-12-5-9-7-18V565q13-51 63-64" style="opacity:1"/>
</svg>
