<?xml version="1.0" encoding="UTF-8" standalone="no"?>
<!-- Created with Inkscape (http://www.inkscape.org/) -->

<svg
   xmlns:dc="http://purl.org/dc/elements/1.1/"
   xmlns:cc="http://creativecommons.org/ns#"
   xmlns:rdf="http://www.w3.org/1999/02/22-rdf-syntax-ns#"
   xmlns:svg="http://www.w3.org/2000/svg"
   xmlns="http://www.w3.org/2000/svg"
   xmlns:sodipodi="http://sodipodi.sourceforge.net/DTD/sodipodi-0.dtd"
   xmlns:inkscape="http://www.inkscape.org/namespaces/inkscape"
   id="svg17738"
   version="1.1"
   inkscape:version="0.47 r22583"
   width="21.786938"
   height="22.046721"
   sodipodi:docname="smallHop.svg">
  <metadata
     id="metadata17744">
    <rdf:RDF>
      <cc:Work
         rdf:about="">
        <dc:format>image/svg+xml</dc:format>
        <dc:type
           rdf:resource="http://purl.org/dc/dcmitype/StillImage" />
        <dc:title />
      </cc:Work>
    </rdf:RDF>
  </metadata>
  <defs
     id="defs17742">
    <inkscape:perspective
       sodipodi:type="inkscape:persp3d"
       inkscape:vp_x="0 : 0.5 : 1"
       inkscape:vp_y="0 : 1000 : 0"
       inkscape:vp_z="1 : 0.5 : 1"
       inkscape:persp3d-origin="0.5 : 0.33333333 : 1"
       id="perspective17746" />
    <inkscape:perspective
       id="perspective17758"
       inkscape:persp3d-origin="0.5 : 0.33333333 : 1"
       inkscape:vp_z="1 : 0.5 : 1"
       inkscape:vp_y="0 : 1000 : 0"
       inkscape:vp_x="0 : 0.5 : 1"
       sodipodi:type="inkscape:persp3d" />
  </defs>
  <sodipodi:namedview
     pagecolor="#ffffff"
     bordercolor="#666666"
     borderopacity="1"
     objecttolerance="10"
     gridtolerance="10"
     guidetolerance="10"
     inkscape:pageopacity="0"
     inkscape:pageshadow="2"
     inkscape:window-width="1143"
     inkscape:window-height="777"
     id="namedview17740"
     showgrid="false"
     inkscape:zoom="7.375"
     inkscape:cx="11.146975"
     inkscape:cy="11.465442"
     inkscape:window-x="0"
     inkscape:window-y="0"
     inkscape:window-maximized="0"
     inkscape:current-layer="svg17738" />
  <g
     id="g2849">
    <g
       id="Layer_2"
       transform="matrix(0.02441549,0.02407532,-0.02407532,0.02441549,9.6394563,-7.1295676)"
       style="stroke:#475f47;stroke-width:24.59313774;stroke-miterlimit:4;stroke-opacity:1;stroke-dasharray:none">
      <path
         style="fill:#717c12;stroke:#475f47;stroke-width:24.59313774;stroke-miterlimit:4;stroke-opacity:1;stroke-dasharray:none"
         id="path79690"
         d="m 363,25 l 1,46 L 347,53 c 0,0 -10.333,-11.333 -21.333,0.667 C 314.667,65.667 297,81 297,81 c 0,0 -0.165,0.105 -0.474,0.305 C 292.078,84.175 257.675,106.52 253,114 c -5,8 -39,48 -48,83 c -9,35 -47,69 -47,69 c 0,0 0,16 17,8 c 17,-8 16.333,-4.334 16.333,-4.334 c 0,0 -6.333,18.334 -5.333,47.334 c 1,29 -2.5,33.375 -12.5,69.375 c -10,36 23.5,-6.709 23.5,-6.709 c 0,0 0,36.334 10,73.334 c 10,37 10,57 9,74 c -1,17 16,-13 16,-13 c 0,0 0.667,17 6.667,36 c 6,19 18.064,37.523 18.667,46 c 0.417,5.875 -0.648,45.512 1.667,49.5 c 2.25,3.875 27.667,-23.834 27.667,-23.834 c 0,0 4.642,14.766 16.5,29.584 c 0.841,1.051 7.314,-5.561 7.75,-4.25 c 8.915,26.834 40.411,55.316 44.082,58 c 26,19 40,43 44,53 c 4,10 6,-1 6,-1 c 0,0 25.001,-27.668 36.001,-37.668 C 452.001,709.332 462,702 462,702 c 0,0 5,11 9,11 c 4,0 43,-77 52,-80 c 9,-3 10,5 22,-19 c 12,-24 15,-71 15,-71 c 0,0 10.334,8.334 17.334,9.334 c 7,1 14.334,1.334 14.334,1.334 c 0,0 -11.702,-31.574 -9.668,-57.668 c 4.001,-51.332 5.002,-53.998 7.668,-60.666 c 2.599,-6.5 17,0 17,0 c 0,0 -10.667,-38.667 -9.667,-59.667 C 598.001,354.667 599,344 601,326 c 2,-18 -3,-39 -3,-39 c 0,0 16,7 19,-1 c 2.889,-7.702 -8.999,-19.332 -9.999,-24.999 C 607.001,261.001 601,225 594,197 c -7,-28 -28.667,-47 -28.667,-47 l 15,-19.667 c 0,0 -29.317,-0.662 -40,-11 C 530,109.333 486.415,60.303 467.666,56 c -20.332,-4.667 -62.332,18.001 -62.332,18.001 l -2.333,-49 L 363,25 z" />
      <path
         style="fill:none;stroke:#475f47;stroke-width:24.59313774;stroke-miterlimit:4;stroke-opacity:1;stroke-dasharray:none"
         id="path79692"
         d="m 338.333,89.667 c 0,0 -20.667,-18 -43.333,-7.333" />
    </g>
    <g
       id="g79887"
       transform="matrix(0.01526461,0.01255281,-0.01255281,0.01526461,10.582914,3.7594257)"
       style="stroke:#475f47;stroke-width:42.66908264;stroke-miterlimit:4;stroke-opacity:1;stroke-dasharray:none">
      <path
         style="fill:#717c12;stroke:#475f47;stroke-width:42.66908264;stroke-miterlimit:4;stroke-opacity:1;stroke-dasharray:none"
         id="path79889"
         d="m 363,25 l 1,46 L 347,53 c 0,0 -10.333,-11.333 -21.333,0.667 C 314.667,65.667 297,81 297,81 c 0,0 -0.165,0.105 -0.474,0.305 C 292.078,84.175 257.675,106.52 253,114 c -5,8 -39,48 -48,83 c -9,35 -47,69 -47,69 c 0,0 0,16 17,8 c 17,-8 16.333,-4.334 16.333,-4.334 c 0,0 -6.333,18.334 -5.333,47.334 c 1,29 -2.5,33.375 -12.5,69.375 c -10,36 23.5,-6.709 23.5,-6.709 c 0,0 0,36.334 10,73.334 c 10,37 10,57 9,74 c -1,17 16,-13 16,-13 c 0,0 0.667,17 6.667,36 c 6,19 18.064,37.523 18.667,46 c 0.417,5.875 -0.648,45.512 1.667,49.5 c 2.25,3.875 27.667,-23.834 27.667,-23.834 c 0,0 4.642,14.766 16.5,29.584 c 0.841,1.051 7.314,-5.561 7.75,-4.25 c 8.915,26.834 40.411,55.316 44.082,58 c 26,19 40,43 44,53 c 4,10 6,-1 6,-1 c 0,0 25.001,-27.668 36.001,-37.668 C 452.001,709.332 462,702 462,702 c 0,0 5,11 9,11 c 4,0 43,-77 52,-80 c 9,-3 10,5 22,-19 c 12,-24 15,-71 15,-71 c 0,0 10.334,8.334 17.334,9.334 c 7,1 14.334,1.334 14.334,1.334 c 0,0 -11.702,-31.574 -9.668,-57.668 c 4.001,-51.332 5.002,-53.998 7.668,-60.666 c 2.599,-6.5 17,0 17,0 c 0,0 -10.667,-38.667 -9.667,-59.667 C 598.001,354.667 599,344 601,326 c 2,-18 -3,-39 -3,-39 c 0,0 16,7 19,-1 c 2.889,-7.702 -8.999,-19.332 -9.999,-24.999 C 607.001,261.001 601,225 594,197 c -7,-28 -28.667,-47 -28.667,-47 l 15,-19.667 c 0,0 -29.317,-0.662 -40,-11 C 530,109.333 486.415,60.303 467.666,56 c -20.332,-4.667 -62.332,18.001 -62.332,18.001 l -2.333,-49 L 363,25 z" />
      <path
         style="fill:none;stroke:#475f47;stroke-width:42.66908264;stroke-miterlimit:4;stroke-opacity:1;stroke-dasharray:none"
         id="path79891"
         d="m 338.333,89.667 c 0,0 -20.667,-18 -43.333,-7.333" />
    </g>
    <g
       transform="matrix(0.01038249,0.01406268,-0.01406268,0.01038249,8.3635938,0.55746241)"
       id="g79893"
       style="stroke:#475f47;stroke-width:48.24189758;stroke-miterlimit:4;stroke-opacity:1;stroke-dasharray:none">
      <path
         d="m 363,25 l 1,46 L 347,53 c 0,0 -10.333,-11.333 -21.333,0.667 C 314.667,65.667 297,81 297,81 c 0,0 -0.165,0.105 -0.474,0.305 C 292.078,84.175 257.675,106.52 253,114 c -5,8 -39,48 -48,83 c -9,35 -47,69 -47,69 c 0,0 0,16 17,8 c 17,-8 16.333,-4.334 16.333,-4.334 c 0,0 -6.333,18.334 -5.333,47.334 c 1,29 -2.5,33.375 -12.5,69.375 c -10,36 23.5,-6.709 23.5,-6.709 c 0,0 0,36.334 10,73.334 c 10,37 10,57 9,74 c -1,17 16,-13 16,-13 c 0,0 0.667,17 6.667,36 c 6,19 18.064,37.523 18.667,46 c 0.417,5.875 -0.648,45.512 1.667,49.5 c 2.25,3.875 27.667,-23.834 27.667,-23.834 c 0,0 4.642,14.766 16.5,29.584 c 0.841,1.051 7.314,-5.561 7.75,-4.25 c 8.915,26.834 40.411,55.316 44.082,58 c 26,19 40,43 44,53 c 4,10 6,-1 6,-1 c 0,0 25.001,-27.668 36.001,-37.668 C 452.001,709.332 462,702 462,702 c 0,0 5,11 9,11 c 4,0 43,-77 52,-80 c 9,-3 10,5 22,-19 c 12,-24 15,-71 15,-71 c 0,0 10.334,8.334 17.334,9.334 c 7,1 14.334,1.334 14.334,1.334 c 0,0 -11.702,-31.574 -9.668,-57.668 c 4.001,-51.332 5.002,-53.998 7.668,-60.666 c 2.599,-6.5 17,0 17,0 c 0,0 -10.667,-38.667 -9.667,-59.667 C 598.001,354.667 599,344 601,326 c 2,-18 -3,-39 -3,-39 c 0,0 16,7 19,-1 c 2.889,-7.702 -8.999,-19.332 -9.999,-24.999 C 607.001,261.001 601,225 594,197 c -7,-28 -28.667,-47 -28.667,-47 l 15,-19.667 c 0,0 -29.317,-0.662 -40,-11 C 530,109.333 486.415,60.303 467.666,56 c -20.332,-4.667 -62.332,18.001 -62.332,18.001 l -2.333,-49 L 363,25 z"
         id="path79895"
         style="fill:#717c12;stroke:#475f47;stroke-width:48.24189758;stroke-miterlimit:4;stroke-opacity:1;stroke-dasharray:none" />
      <path
         d="m 338.333,89.667 c 0,0 -20.667,-18 -43.333,-7.333"
         id="path79897"
         style="fill:none;stroke:#475f47;stroke-width:48.24189758;stroke-miterlimit:4;stroke-opacity:1;stroke-dasharray:none" />
    </g>
    <g
       transform="matrix(0.01354725,0.01438935,-0.01438935,0.01354725,9.1343551,1.0682181)"
       id="g79881"
       style="stroke:#475f47;stroke-width:42.66908264;stroke-miterlimit:4;stroke-opacity:1;stroke-dasharray:none">
      <path
         d="m 363,25 l 1,46 L 347,53 c 0,0 -10.333,-11.333 -21.333,0.667 C 314.667,65.667 297,81 297,81 c 0,0 -0.165,0.105 -0.474,0.305 C 292.078,84.175 257.675,106.52 253,114 c -5,8 -39,48 -48,83 c -9,35 -47,69 -47,69 c 0,0 0,16 17,8 c 17,-8 16.333,-4.334 16.333,-4.334 c 0,0 -6.333,18.334 -5.333,47.334 c 1,29 -2.5,33.375 -12.5,69.375 c -10,36 23.5,-6.709 23.5,-6.709 c 0,0 0,36.334 10,73.334 c 10,37 10,57 9,74 c -1,17 16,-13 16,-13 c 0,0 0.667,17 6.667,36 c 6,19 18.064,37.523 18.667,46 c 0.417,5.875 -0.648,45.512 1.667,49.5 c 2.25,3.875 27.667,-23.834 27.667,-23.834 c 0,0 4.642,14.766 16.5,29.584 c 0.841,1.051 7.314,-5.561 7.75,-4.25 c 8.915,26.834 40.411,55.316 44.082,58 c 26,19 40,43 44,53 c 4,10 6,-1 6,-1 c 0,0 25.001,-27.668 36.001,-37.668 C 452.001,709.332 462,702 462,702 c 0,0 5,11 9,11 c 4,0 43,-77 52,-80 c 9,-3 10,5 22,-19 c 12,-24 15,-71 15,-71 c 0,0 10.334,8.334 17.334,9.334 c 7,1 14.334,1.334 14.334,1.334 c 0,0 -11.702,-31.574 -9.668,-57.668 c 4.001,-51.332 5.002,-53.998 7.668,-60.666 c 2.599,-6.5 17,0 17,0 c 0,0 -10.667,-38.667 -9.667,-59.667 C 598.001,354.667 599,344 601,326 c 2,-18 -3,-39 -3,-39 c 0,0 16,7 19,-1 c 2.889,-7.702 -8.999,-19.332 -9.999,-24.999 C 607.001,261.001 601,225 594,197 c -7,-28 -28.667,-47 -28.667,-47 l 15,-19.667 c 0,0 -29.317,-0.662 -40,-11 C 530,109.333 486.415,60.303 467.666,56 c -20.332,-4.667 -62.332,18.001 -62.332,18.001 l -2.333,-49 L 363,25 z"
         id="path79883"
         style="fill:#717c12;stroke:#475f47;stroke-width:42.66908264;stroke-miterlimit:4;stroke-opacity:1;stroke-dasharray:none" />
      <path
         d="m 338.333,89.667 c 0,0 -20.667,-18 -43.333,-7.333"
         id="path79885"
         style="fill:none;stroke:#475f47;stroke-width:42.66908264;stroke-miterlimit:4;stroke-opacity:1;stroke-dasharray:none" />
    </g>
    <g
       transform="matrix(0.00856851,0.02005054,-0.02005054,0.00856851,16.285167,-5.0255722)"
       id="g79869"
       style="stroke:#475f47;stroke-width:38.67404175;stroke-miterlimit:4;stroke-opacity:1;stroke-dasharray:none">
      <path
         d="m 363,25 l 1,46 L 347,53 c 0,0 -10.333,-11.333 -21.333,0.667 C 314.667,65.667 297,81 297,81 c 0,0 -0.165,0.105 -0.474,0.305 C 292.078,84.175 257.675,106.52 253,114 c -5,8 -39,48 -48,83 c -9,35 -47,69 -47,69 c 0,0 0,16 17,8 c 17,-8 16.333,-4.334 16.333,-4.334 c 0,0 -6.333,18.334 -5.333,47.334 c 1,29 -2.5,33.375 -12.5,69.375 c -10,36 23.5,-6.709 23.5,-6.709 c 0,0 0,36.334 10,73.334 c 10,37 10,57 9,74 c -1,17 16,-13 16,-13 c 0,0 0.667,17 6.667,36 c 6,19 18.064,37.523 18.667,46 c 0.417,5.875 -0.648,45.512 1.667,49.5 c 2.25,3.875 27.667,-23.834 27.667,-23.834 c 0,0 4.642,14.766 16.5,29.584 c 0.841,1.051 7.314,-5.561 7.75,-4.25 c 8.915,26.834 40.411,55.316 44.082,58 c 26,19 40,43 44,53 c 4,10 6,-1 6,-1 c 0,0 25.001,-27.668 36.001,-37.668 C 452.001,709.332 462,702 462,702 c 0,0 5,11 9,11 c 4,0 43,-77 52,-80 c 9,-3 10,5 22,-19 c 12,-24 15,-71 15,-71 c 0,0 10.334,8.334 17.334,9.334 c 7,1 14.334,1.334 14.334,1.334 c 0,0 -11.702,-31.574 -9.668,-57.668 c 4.001,-51.332 5.002,-53.998 7.668,-60.666 c 2.599,-6.5 17,0 17,0 c 0,0 -10.667,-38.667 -9.667,-59.667 C 598.001,354.667 599,344 601,326 c 2,-18 -3,-39 -3,-39 c 0,0 16,7 19,-1 c 2.889,-7.702 -8.999,-19.332 -9.999,-24.999 C 607.001,261.001 601,225 594,197 c -7,-28 -28.667,-47 -28.667,-47 l 15,-19.667 c 0,0 -29.317,-0.662 -40,-11 C 530,109.333 486.415,60.303 467.666,56 c -20.332,-4.667 -62.332,18.001 -62.332,18.001 l -2.333,-49 L 363,25 z"
         id="path79871"
         style="fill:#717c12;stroke:#475f47;stroke-width:38.67404175;stroke-miterlimit:4;stroke-opacity:1;stroke-dasharray:none" />
      <path
         d="m 338.333,89.667 c 0,0 -20.667,-18 -43.333,-7.333"
         id="path79873"
         style="fill:none;stroke:#475f47;stroke-width:38.67404175;stroke-miterlimit:4;stroke-opacity:1;stroke-dasharray:none" />
    </g>
    <g
       id="g79875"
       transform="matrix(0.01838344,0.01172573,-0.01172573,0.01838344,12.225027,-1.8070466)"
       style="stroke:#475f47;stroke-width:38.67403793;stroke-miterlimit:4;stroke-opacity:1;stroke-dasharray:none">
      <path
         style="fill:#717c12;stroke:#475f47;stroke-width:38.67403793;stroke-miterlimit:4;stroke-opacity:1;stroke-dasharray:none"
         id="path79877"
         d="m 363,25 l 1,46 L 347,53 c 0,0 -10.333,-11.333 -21.333,0.667 C 314.667,65.667 297,81 297,81 c 0,0 -0.165,0.105 -0.474,0.305 C 292.078,84.175 257.675,106.52 253,114 c -5,8 -39,48 -48,83 c -9,35 -47,69 -47,69 c 0,0 0,16 17,8 c 17,-8 16.333,-4.334 16.333,-4.334 c 0,0 -6.333,18.334 -5.333,47.334 c 1,29 -2.5,33.375 -12.5,69.375 c -10,36 23.5,-6.709 23.5,-6.709 c 0,0 0,36.334 10,73.334 c 10,37 10,57 9,74 c -1,17 16,-13 16,-13 c 0,0 0.667,17 6.667,36 c 6,19 18.064,37.523 18.667,46 c 0.417,5.875 -0.648,45.512 1.667,49.5 c 2.25,3.875 27.667,-23.834 27.667,-23.834 c 0,0 4.642,14.766 16.5,29.584 c 0.841,1.051 7.314,-5.561 7.75,-4.25 c 8.915,26.834 40.411,55.316 44.082,58 c 26,19 40,43 44,53 c 4,10 6,-1 6,-1 c 0,0 25.001,-27.668 36.001,-37.668 C 452.001,709.332 462,702 462,702 c 0,0 5,11 9,11 c 4,0 43,-77 52,-80 c 9,-3 10,5 22,-19 c 12,-24 15,-71 15,-71 c 0,0 10.334,8.334 17.334,9.334 c 7,1 14.334,1.334 14.334,1.334 c 0,0 -11.702,-31.574 -9.668,-57.668 c 4.001,-51.332 5.002,-53.998 7.668,-60.666 c 2.599,-6.5 17,0 17,0 c 0,0 -10.667,-38.667 -9.667,-59.667 C 598.001,354.667 599,344 601,326 c 2,-18 -3,-39 -3,-39 c 0,0 16,7 19,-1 c 2.889,-7.702 -8.999,-19.332 -9.999,-24.999 C 607.001,261.001 601,225 594,197 c -7,-28 -28.667,-47 -28.667,-47 l 15,-19.667 c 0,0 -29.317,-0.662 -40,-11 C 530,109.333 486.415,60.303 467.666,56 c -20.332,-4.667 -62.332,18.001 -62.332,18.001 l -2.333,-49 L 363,25 z" />
      <path
         style="fill:none;stroke:#475f47;stroke-width:38.67403793;stroke-miterlimit:4;stroke-opacity:1;stroke-dasharray:none"
         id="path79879"
         d="m 338.333,89.667 c 0,0 -20.667,-18 -43.333,-7.333" />
    </g>
  </g>
</svg>
