<?xml version="1.0" encoding="UTF-8" standalone="no"?>
<!-- Created with Inkscape (http://www.inkscape.org/) -->

<svg
   xmlns:dc="http://purl.org/dc/elements/1.1/"
   xmlns:cc="http://creativecommons.org/ns#"
   xmlns:rdf="http://www.w3.org/1999/02/22-rdf-syntax-ns#"
   xmlns:svg="http://www.w3.org/2000/svg"
   xmlns="http://www.w3.org/2000/svg"
   xmlns:sodipodi="http://sodipodi.sourceforge.net/DTD/sodipodi-0.dtd"
   xmlns:inkscape="http://www.inkscape.org/namespaces/inkscape"
   id="svg17567"
   version="1.1"
   inkscape:version="0.47 r22583"
   width="24.893332"
   height="26.152163"
   sodipodi:docname="smallBarley.svg">
  <metadata
     id="metadata17573">
    <rdf:RDF>
      <cc:Work
         rdf:about="">
        <dc:format>image/svg+xml</dc:format>
        <dc:type
           rdf:resource="http://purl.org/dc/dcmitype/StillImage" />
        <dc:title />
      </cc:Work>
    </rdf:RDF>
  </metadata>
  <defs
     id="defs17571">
    <inkscape:perspective
       sodipodi:type="inkscape:persp3d"
       inkscape:vp_x="0 : 0.5 : 1"
       inkscape:vp_y="0 : 1000 : 0"
       inkscape:vp_z="1 : 0.5 : 1"
       inkscape:persp3d-origin="0.5 : 0.33333333 : 1"
       id="perspective17575" />
    <inkscape:perspective
       id="perspective17469"
       inkscape:persp3d-origin="0.5 : 0.33333333 : 1"
       inkscape:vp_z="1 : 0.5 : 1"
       inkscape:vp_y="0 : 1000 : 0"
       inkscape:vp_x="0 : 0.5 : 1"
       sodipodi:type="inkscape:persp3d" />
  </defs>
  <sodipodi:namedview
     pagecolor="#ffffff"
     bordercolor="#666666"
     borderopacity="1"
     objecttolerance="10"
     gridtolerance="10"
     guidetolerance="10"
     inkscape:pageopacity="0"
     inkscape:pageshadow="2"
     inkscape:window-width="640"
     inkscape:window-height="494"
     id="namedview17569"
     showgrid="false"
     inkscape:zoom="6.5555556"
     inkscape:cx="12.277175"
     inkscape:cy="11.550658"
     inkscape:window-x="0"
     inkscape:window-y="0"
     inkscape:window-maximized="0"
     inkscape:current-layer="svg17567" />
  <g
     id="g2885">
    <g
       id="g30427"
       transform="matrix(1.8922692,0,0,1.8922692,-16.247188,-695.78526)">
      <path
         style="fill:#efdd86;fill-opacity:1;fill-rule:evenodd;stroke:#b89d29;stroke-width:0.454;stroke-linecap:butt;stroke-linejoin:miter;stroke-miterlimit:4;stroke-opacity:1;stroke-dasharray:none"
         d="m 14.63974,375.15415 c -0.233097,-1.53472 1.115758,-4.51295 1.374976,-5.00533 c 0.345883,-0.6559 0.642435,-0.79253 0.92606,-1.32531 c 0.254419,-0.4779 0.43908,-0.91555 0.711776,-0.89707 c -0.366999,0.2549 -0.307829,1.42442 -0.247003,2.08045 c 0.09253,0.99778 -0.01758,2.22809 -2.766188,5.14716 z"
         id="path30429"
         sodipodi:nodetypes="csscsc" />
      <path
         sodipodi:nodetypes="csscsc"
         id="path30431"
         d="m 14.941827,375.49055 c 1.404891,0.19645 4.111734,-1.06822 4.558764,-1.31074 c 0.595613,-0.32314 0.717251,-0.59559 1.201027,-0.8605 c 0.433943,-0.23763 0.83187,-0.41109 0.812041,-0.66008 c -0.228968,0.33811 -1.298266,0.29666 -1.898377,0.24816 c -0.912745,-0.0738 -2.035763,0.0401 -4.673455,2.58316 z"
         style="fill:#efdd86;fill-opacity:1;fill-rule:evenodd;stroke:#b89d29;stroke-width:0.454;stroke-linecap:butt;stroke-linejoin:miter;stroke-miterlimit:4;stroke-opacity:1;stroke-dasharray:none" />
      <g
         transform="translate(-6.4397225,-2.8094868)"
         id="g30433">
        <path
           sodipodi:nodetypes="csscs"
           id="path30435"
           d="m 22.502743,376.78721 c 0.65863,-0.65796 1.368324,-1.27628 2.313828,-1.68565 c 0.443893,-0.1922 0.93873,0.24872 0.127238,0.5771 c -1.163303,0.47074 -2.020411,1.03953 -2.905112,1.59947 c 0.02087,0.0191 0.178526,-0.20569 0.464046,-0.49092 z"
           style="fill:#ebc94b;fill-opacity:1;fill-rule:evenodd;stroke:#a28a25;stroke-width:0.215;stroke-linecap:butt;stroke-linejoin:miter;stroke-miterlimit:4;stroke-opacity:1;stroke-dasharray:none" />
        <path
           sodipodi:nodetypes="ccsc"
           id="path30437"
           d="m 25.332798,375.16217 c -1.113522,0.35653 -1.97633,1.05701 -2.863463,1.673 c 0.721908,-0.63696 1.384079,-1.33382 2.361554,-1.75417 c 0.173528,-0.0746 0.398281,-0.0483 0.501909,0.0812 z"
           style="fill:#9d7900;fill-opacity:1;fill-rule:evenodd;stroke:none" />
      </g>
      <g
         transform="translate(-1.767767,0.91545074)"
         id="g30439">
        <path
           style="fill:#ebc94b;fill-opacity:1;fill-rule:evenodd;stroke:#a28a25;stroke-width:0.317;stroke-linecap:butt;stroke-linejoin:miter;stroke-miterlimit:4;stroke-opacity:1;stroke-dasharray:none"
           d="m 17.156987,373.78038 c 0.621892,-0.80292 1.193893,-1.65567 1.507459,-2.73502 c 0.147397,-0.50667 -0.397728,-0.98189 -0.641996,-0.0587 c -0.350183,1.32346 -0.84837,2.32897 -1.333226,3.36314 c -0.02358,-0.0199 0.198165,-0.22138 0.467763,-0.56945 z"
           id="path30441"
           sodipodi:nodetypes="csscs" />
        <path
           style="fill:#9d7900;fill-opacity:1;fill-rule:evenodd;stroke:none"
           d="m 18.433452,370.58967 c -0.233377,1.25395 -0.873327,2.28366 -1.418502,3.32813 c 0.590501,-0.86852 1.254007,-1.6806 1.575083,-2.79605 c 0.05685,-0.19806 -0.0023,-0.43765 -0.156581,-0.53208 z"
           id="path30443"
           sodipodi:nodetypes="ccsc" />
      </g>
    </g>
    <g
       transform="matrix(1.8922692,0,0,1.8922692,-19.964144,-691.98383)"
       id="g30409">
      <path
         sodipodi:nodetypes="csscsc"
         id="path30411"
         d="m 14.63974,375.15415 c -0.233097,-1.53472 1.115758,-4.51295 1.374976,-5.00533 c 0.345883,-0.6559 0.642435,-0.79253 0.92606,-1.32531 c 0.254419,-0.4779 0.43908,-0.91555 0.711776,-0.89707 c -0.366999,0.2549 -0.307829,1.42442 -0.247003,2.08045 c 0.09253,0.99778 -0.01758,2.22809 -2.766188,5.14716 z"
         style="fill:#efdd86;fill-opacity:1;fill-rule:evenodd;stroke:#b89d29;stroke-width:0.454;stroke-linecap:butt;stroke-linejoin:miter;stroke-miterlimit:4;stroke-opacity:1;stroke-dasharray:none" />
      <path
         style="fill:#efdd86;fill-opacity:1;fill-rule:evenodd;stroke:#b89d29;stroke-width:0.454;stroke-linecap:butt;stroke-linejoin:miter;stroke-miterlimit:4;stroke-opacity:1;stroke-dasharray:none"
         d="m 14.941827,375.49055 c 1.404891,0.19645 4.111734,-1.06822 4.558764,-1.31074 c 0.595613,-0.32314 0.717251,-0.59559 1.201027,-0.8605 c 0.433943,-0.23763 0.83187,-0.41109 0.812041,-0.66008 c -0.228968,0.33811 -1.298266,0.29666 -1.898377,0.24816 c -0.912745,-0.0738 -2.035763,0.0401 -4.673455,2.58316 z"
         id="path30413"
         sodipodi:nodetypes="csscsc" />
      <g
         id="g30415"
         transform="translate(-6.4397225,-2.8094868)">
        <path
           style="fill:#ebc94b;fill-opacity:1;fill-rule:evenodd;stroke:#a28a25;stroke-width:0.215;stroke-linecap:butt;stroke-linejoin:miter;stroke-miterlimit:4;stroke-opacity:1;stroke-dasharray:none"
           d="m 22.502743,376.78721 c 0.65863,-0.65796 1.368324,-1.27628 2.313828,-1.68565 c 0.443893,-0.1922 0.93873,0.24872 0.127238,0.5771 c -1.163303,0.47074 -2.020411,1.03953 -2.905112,1.59947 c 0.02087,0.0191 0.178526,-0.20569 0.464046,-0.49092 z"
           id="path30417"
           sodipodi:nodetypes="csscs" />
        <path
           style="fill:#9d7900;fill-opacity:1;fill-rule:evenodd;stroke:none"
           d="m 25.332798,375.16217 c -1.113522,0.35653 -1.97633,1.05701 -2.863463,1.673 c 0.721908,-0.63696 1.384079,-1.33382 2.361554,-1.75417 c 0.173528,-0.0746 0.398281,-0.0483 0.501909,0.0812 z"
           id="path30419"
           sodipodi:nodetypes="ccsc" />
      </g>
      <g
         id="g30421"
         transform="translate(-1.767767,0.91545074)">
        <path
           sodipodi:nodetypes="csscs"
           id="path30423"
           d="m 17.156987,373.78038 c 0.621892,-0.80292 1.193893,-1.65567 1.507459,-2.73502 c 0.147397,-0.50667 -0.397728,-0.98189 -0.641996,-0.0587 c -0.350183,1.32346 -0.84837,2.32897 -1.333226,3.36314 c -0.02358,-0.0199 0.198165,-0.22138 0.467763,-0.56945 z"
           style="fill:#ebc94b;fill-opacity:1;fill-rule:evenodd;stroke:#a28a25;stroke-width:0.317;stroke-linecap:butt;stroke-linejoin:miter;stroke-miterlimit:4;stroke-opacity:1;stroke-dasharray:none" />
        <path
           sodipodi:nodetypes="ccsc"
           id="path30425"
           d="m 18.433452,370.58967 c -0.233377,1.25395 -0.873327,2.28366 -1.418502,3.32813 c 0.590501,-0.86852 1.254007,-1.6806 1.575083,-2.79605 c 0.05685,-0.19806 -0.0023,-0.43765 -0.156581,-0.53208 z"
           style="fill:#9d7900;fill-opacity:1;fill-rule:evenodd;stroke:none" />
      </g>
    </g>
    <g
       id="g30391"
       transform="matrix(1.8922692,0,0,1.8922692,-23.637771,-688.2206)">
      <path
         style="fill:#efdd86;fill-opacity:1;fill-rule:evenodd;stroke:#b89d29;stroke-width:0.454;stroke-linecap:butt;stroke-linejoin:miter;stroke-miterlimit:4;stroke-opacity:1;stroke-dasharray:none"
         d="m 14.63974,375.15415 c -0.233097,-1.53472 1.115758,-4.51295 1.374976,-5.00533 c 0.345883,-0.6559 0.642435,-0.79253 0.92606,-1.32531 c 0.254419,-0.4779 0.43908,-0.91555 0.711776,-0.89707 c -0.366999,0.2549 -0.307829,1.42442 -0.247003,2.08045 c 0.09253,0.99778 -0.01758,2.22809 -2.766188,5.14716 z"
         id="path30393"
         sodipodi:nodetypes="csscsc" />
      <path
         sodipodi:nodetypes="csscsc"
         id="path30395"
         d="m 14.941827,375.49055 c 1.404891,0.19645 4.111734,-1.06822 4.558764,-1.31074 c 0.595613,-0.32314 0.717251,-0.59559 1.201027,-0.8605 c 0.433943,-0.23763 0.83187,-0.41109 0.812041,-0.66008 c -0.228968,0.33811 -1.298266,0.29666 -1.898377,0.24816 c -0.912745,-0.0738 -2.035763,0.0401 -4.673455,2.58316 z"
         style="fill:#efdd86;fill-opacity:1;fill-rule:evenodd;stroke:#b89d29;stroke-width:0.454;stroke-linecap:butt;stroke-linejoin:miter;stroke-miterlimit:4;stroke-opacity:1;stroke-dasharray:none" />
      <g
         transform="translate(-6.4397225,-2.8094868)"
         id="g30397">
        <path
           sodipodi:nodetypes="csscs"
           id="path30399"
           d="m 22.502743,376.78721 c 0.65863,-0.65796 1.368324,-1.27628 2.313828,-1.68565 c 0.443893,-0.1922 0.93873,0.24872 0.127238,0.5771 c -1.163303,0.47074 -2.020411,1.03953 -2.905112,1.59947 c 0.02087,0.0191 0.178526,-0.20569 0.464046,-0.49092 z"
           style="fill:#ebc94b;fill-opacity:1;fill-rule:evenodd;stroke:#a28a25;stroke-width:0.215;stroke-linecap:butt;stroke-linejoin:miter;stroke-miterlimit:4;stroke-opacity:1;stroke-dasharray:none" />
        <path
           sodipodi:nodetypes="ccsc"
           id="path30401"
           d="m 25.332798,375.16217 c -1.113522,0.35653 -1.97633,1.05701 -2.863463,1.673 c 0.721908,-0.63696 1.384079,-1.33382 2.361554,-1.75417 c 0.173528,-0.0746 0.398281,-0.0483 0.501909,0.0812 z"
           style="fill:#9d7900;fill-opacity:1;fill-rule:evenodd;stroke:none" />
      </g>
      <g
         transform="translate(-1.767767,0.91545074)"
         id="g30403">
        <path
           style="fill:#ebc94b;fill-opacity:1;fill-rule:evenodd;stroke:#a28a25;stroke-width:0.317;stroke-linecap:butt;stroke-linejoin:miter;stroke-miterlimit:4;stroke-opacity:1;stroke-dasharray:none"
           d="m 17.156987,373.78038 c 0.621892,-0.80292 1.193893,-1.65567 1.507459,-2.73502 c 0.147397,-0.50667 -0.397728,-0.98189 -0.641996,-0.0587 c -0.350183,1.32346 -0.84837,2.32897 -1.333226,3.36314 c -0.02358,-0.0199 0.198165,-0.22138 0.467763,-0.56945 z"
           id="path30405"
           sodipodi:nodetypes="csscs" />
        <path
           style="fill:#9d7900;fill-opacity:1;fill-rule:evenodd;stroke:none"
           d="m 18.433452,370.58967 c -0.233377,1.25395 -0.873327,2.28366 -1.418502,3.32813 c 0.590501,-0.86852 1.254007,-1.6806 1.575083,-2.79605 c 0.05685,-0.19806 -0.0023,-0.43765 -0.156581,-0.53208 z"
           id="path30407"
           sodipodi:nodetypes="ccsc" />
      </g>
    </g>
    <g
       transform="matrix(1.8922692,0,0,1.8922692,-27.221797,-684.84564)"
       id="g30381">
      <path
         sodipodi:nodetypes="csscsc"
         id="path6273"
         d="m 14.63974,375.15415 c -0.233097,-1.53472 1.115758,-4.51295 1.374976,-5.00533 c 0.345883,-0.6559 0.642435,-0.79253 0.92606,-1.32531 c 0.254419,-0.4779 0.43908,-0.91555 0.711776,-0.89707 c -0.366999,0.2549 -0.307829,1.42442 -0.247003,2.08045 c 0.09253,0.99778 -0.01758,2.22809 -2.766188,5.14716 z"
         style="fill:#efdd86;fill-opacity:1;fill-rule:evenodd;stroke:#b89d29;stroke-width:0.454;stroke-linecap:butt;stroke-linejoin:miter;stroke-miterlimit:4;stroke-opacity:1;stroke-dasharray:none" />
      <path
         style="fill:#efdd86;fill-opacity:1;fill-rule:evenodd;stroke:#b89d29;stroke-width:0.454;stroke-linecap:butt;stroke-linejoin:miter;stroke-miterlimit:4;stroke-opacity:1;stroke-dasharray:none"
         d="m 14.941827,375.49055 c 1.404891,0.19645 4.111734,-1.06822 4.558764,-1.31074 c 0.595613,-0.32314 0.717251,-0.59559 1.201027,-0.8605 c 0.433943,-0.23763 0.83187,-0.41109 0.812041,-0.66008 c -0.228968,0.33811 -1.298266,0.29666 -1.898377,0.24816 c -0.912745,-0.0738 -2.035763,0.0401 -4.673455,2.58316 z"
         id="path6361"
         sodipodi:nodetypes="csscsc" />
      <g
         id="g30371"
         transform="translate(-6.4397225,-2.8094868)">
        <path
           style="fill:#ebc94b;fill-opacity:1;fill-rule:evenodd;stroke:#a28a25;stroke-width:0.215;stroke-linecap:butt;stroke-linejoin:miter;stroke-miterlimit:4;stroke-opacity:1;stroke-dasharray:none"
           d="m 22.502743,376.78721 c 0.65863,-0.65796 1.368324,-1.27628 2.313828,-1.68565 c 0.443893,-0.1922 0.93873,0.24872 0.127238,0.5771 c -1.163303,0.47074 -2.020411,1.03953 -2.905112,1.59947 c 0.02087,0.0191 0.178526,-0.20569 0.464046,-0.49092 z"
           id="path6381"
           sodipodi:nodetypes="csscs" />
        <path
           style="fill:#9d7900;fill-opacity:1;fill-rule:evenodd;stroke:none"
           d="m 25.332798,375.16217 c -1.113522,0.35653 -1.97633,1.05701 -2.863463,1.673 c 0.721908,-0.63696 1.384079,-1.33382 2.361554,-1.75417 c 0.173528,-0.0746 0.398281,-0.0483 0.501909,0.0812 z"
           id="path6383"
           sodipodi:nodetypes="ccsc" />
      </g>
      <g
         id="g30377"
         transform="translate(-1.767767,0.91545074)">
        <path
           sodipodi:nodetypes="csscs"
           id="path6387"
           d="m 17.156987,373.78038 c 0.621892,-0.80292 1.193893,-1.65567 1.507459,-2.73502 c 0.147397,-0.50667 -0.397728,-0.98189 -0.641996,-0.0587 c -0.350183,1.32346 -0.84837,2.32897 -1.333226,3.36314 c -0.02358,-0.0199 0.198165,-0.22138 0.467763,-0.56945 z"
           style="fill:#ebc94b;fill-opacity:1;fill-rule:evenodd;stroke:#a28a25;stroke-width:0.317;stroke-linecap:butt;stroke-linejoin:miter;stroke-miterlimit:4;stroke-opacity:1;stroke-dasharray:none" />
        <path
           sodipodi:nodetypes="ccsc"
           id="path6389"
           d="m 18.433452,370.58967 c -0.233377,1.25395 -0.873327,2.28366 -1.418502,3.32813 c 0.590501,-0.86852 1.254007,-1.6806 1.575083,-2.79605 c 0.05685,-0.19806 -0.0023,-0.43765 -0.156581,-0.53208 z"
           style="fill:#9d7900;fill-opacity:1;fill-rule:evenodd;stroke:none" />
      </g>
    </g>
  </g>
</svg>
