<?xml version="1.0" encoding="iso-8859-1"?>
<!-- Generator: Adobe Illustrator 19.0.0, SVG Export Plug-In . SVG Version: 6.00 Build 0)  -->
<svg version="1.1" id="Layer_1" xmlns="http://www.w3.org/2000/svg" xmlns:xlink="http://www.w3.org/1999/xlink" x="0px" y="0px"
	 viewBox="0 0 512 512" style="enable-background:new 0 0 512 512;" xml:space="preserve">
<path style="fill:#EDEEF0;" d="M72.125,48.434v279.787c0,14.242,5.546,27.631,15.617,37.702s23.46,15.617,37.701,15.617h0.955
	c14.242,0,27.631-5.546,37.701-15.617c10.071-10.071,15.617-23.46,15.617-37.701V48.434H72.125z"/>
<path style="fill:#DCDEE2;" d="M125.92,48.434v333.104h0.48c14.242,0,27.631-5.546,37.701-15.617
	c10.071-10.071,15.617-23.46,15.617-37.701V48.434H125.92z"/>
<path style="fill:#61A2EF;" d="M91.528,328.221c0,9.06,3.528,17.576,9.934,23.983c6.406,6.406,14.923,9.934,23.982,9.934h0.955
	c9.06,0,17.576-3.528,23.983-9.934c6.406-6.406,9.934-14.923,9.934-23.983V141.608H91.528V328.221z"/>
<path style="fill:#528ACF;" d="M125.92,141.608v220.53h0.48c9.06,0,17.576-3.528,23.983-9.934
	c6.406-6.406,9.934-14.923,9.934-23.983V141.608H125.92z"/>
<g>
	<circle style="fill:#FFFFFF;" cx="133.76" cy="166.94" r="15.392"/>
	<circle style="fill:#FFFFFF;" cx="110.33" cy="253.55" r="10.883"/>
</g>
<g>
	<circle style="fill:#EDEEF0;" cx="140.65" cy="295.44" r="10.883"/>
	<path style="fill:#EDEEF0;" d="M133.762,151.539c-2.865,0-5.546,0.785-7.842,2.149v26.486c2.298,1.364,4.978,2.149,7.842,2.149
		c8.501,0,15.392-6.891,15.392-15.392C149.154,158.43,142.263,151.539,133.762,151.539z"/>
	<path style="fill:#EDEEF0;" d="M332.282,48.434v279.787c0,14.242,5.546,27.631,15.617,37.702
		c10.071,10.071,23.46,15.617,37.701,15.617h0.955c14.242,0,27.631-5.546,37.701-15.617c10.071-10.071,15.617-23.46,15.617-37.701
		V48.434H332.282z"/>
</g>
<path style="fill:#DCDEE2;" d="M386.077,48.434v333.104h0.48c14.242,0,27.631-5.546,37.701-15.617
	c10.071-10.071,15.617-23.46,15.617-37.701V48.434H386.077z"/>
<path style="fill:#F74D37;" d="M351.684,328.221c0,9.06,3.528,17.576,9.934,23.983c6.406,6.406,14.923,9.934,23.982,9.934h0.955
	c9.06,0,17.576-3.528,23.983-9.934c6.406-6.406,9.934-14.923,9.934-23.983V141.608h-68.788L351.684,328.221L351.684,328.221z"/>
<path style="fill:#B03727;" d="M386.077,141.608v220.53h0.48c9.06,0,17.576-3.528,23.983-9.934
	c6.406-6.406,9.934-14.923,9.934-23.983V141.608H386.077z"/>
<circle style="fill:#FFFFFF;" cx="393.91" cy="166.94" r="15.392"/>
<circle style="fill:#EDEEF0;" cx="401.2" cy="253.55" r="10.883"/>
<circle style="fill:#FFFFFF;" cx="373.97" cy="319.52" r="10.883"/>
<g>
	<path style="fill:#EDEEF0;" d="M393.919,151.539c-2.865,0-5.546,0.785-7.842,2.149v26.486c2.298,1.364,4.978,2.149,7.842,2.149
		c8.501,0,15.392-6.891,15.392-15.392C409.311,158.43,402.42,151.539,393.919,151.539z"/>
	<path style="fill:#EDEEF0;" d="M202.205,48.434v279.787c0,14.242,5.546,27.631,15.617,37.702s23.46,15.617,37.701,15.617h0.955
		c14.242,0,27.631-5.546,37.701-15.617c10.071-10.071,15.617-23.46,15.617-37.701V48.434H202.205z"/>
</g>
<path style="fill:#DCDEE2;" d="M255.998,48.434v333.104h0.48c14.242,0,27.631-5.546,37.701-15.617
	c10.071-10.071,15.617-23.46,15.617-37.701V48.434H255.998z"/>
<path style="fill:#F9D026;" d="M221.607,328.221c0,9.06,3.528,17.576,9.934,23.983c6.406,6.406,14.923,9.934,23.982,9.934h0.955
	c9.06,0,17.576-3.528,23.983-9.934c6.406-6.406,9.934-14.923,9.934-23.983v-77.707h-68.788V328.221z"/>
<path style="fill:#E7C224;" d="M255.998,250.514v111.623h0.48c9.06,0,17.576-3.528,23.983-9.934
	c6.406-6.406,9.934-14.923,9.934-23.983v-77.707L255.998,250.514L255.998,250.514L255.998,250.514z"/>
<circle style="fill:#EDEEF0;" cx="273.19" cy="271.87" r="10.883"/>
<circle style="fill:#FFFFFF;" cx="240.41" cy="319.52" r="10.883"/>
<path style="fill:#444242;" d="M0,199.128v232.51v31.928l0,0h23.822l0,0h464.355l0,0H512l0,0v-31.928v-232.51H0z M23.822,431.638
	V222.95h464.355v208.688H23.822z"/>
<g>
</g>
<g>
</g>
<g>
</g>
<g>
</g>
<g>
</g>
<g>
</g>
<g>
</g>
<g>
</g>
<g>
</g>
<g>
</g>
<g>
</g>
<g>
</g>
<g>
</g>
<g>
</g>
<g>
</g>
</svg>
